<svg fill="none" height="47" viewBox="0 0 90 47" width="90" xmlns="http://www.w3.org/2000/svg"><g fill="#049fd9"><path d="m29.0958 31.2286h-3.9052v15.4763h3.9052z"/><path d="m19.8214 35.6631c-.1571-.0817-1.4127-.8263-3.2806-.8263-2.5297 0-4.2801 1.7578-4.2801 4.1279 0 2.2996 1.6774 4.1316 4.2801 4.1316 1.8357 0 3.1123-.7286 3.2806-.8214v4.1539c-.4849.1373-1.8172.5505-3.5614.5505-4.3902 0-8.24099-3.0282-8.24099-8.0146 0-4.6215 3.48839-8.0109 8.24099-8.0109 1.8382 0 3.194.4465 3.5614.5554z"/><path d="m60.6428 35.6631c-.1571-.0817-1.4126-.8263-3.2805-.8263-2.5297 0-4.2801 1.7578-4.2801 4.1279 0 2.2996 1.6774 4.1316 4.2801 4.1316 1.8357 0 3.1123-.7286 3.2805-.8214v4.1539c-.4849.1373-1.8171.5505-3.5613.5505-4.3902 0-8.241-3.0282-8.241-8.0146 0-4.6215 3.4884-8.0109 8.241-8.0109 1.8382 0 3.1939.4465 3.5613.5554z"/><path d="m72.8706 34.8949c-2.317 0-4.0377 1.8234-4.0377 4.0698 0 2.2513 1.7207 4.0735 4.0377 4.0735 2.3144 0 4.0401-1.8222 4.0401-4.0735 0-2.2464-1.7257-4.0698-4.0401-4.0698zm8.1779 4.0698c0 4.4272-3.4179 8.0146-8.1779 8.0146-4.7601 0-8.173-3.5874-8.173-8.0146 0-4.4199 3.4129-8.0109 8.173-8.0109 4.76 0 8.1779 3.591 8.1779 8.0109z"/><path d="m43.9058 34.7459c-.0581-.0185-1.7021-.4725-3.0529-.4725-1.5648 0-2.4159.5245-2.4159 1.2679 0 .9426 1.1479 1.2717 1.79 1.4745l1.0774.3427c2.5346.8065 3.69 2.5421 3.69 4.4273 0 3.8879-3.4191 5.1942-6.4077 5.1942-2.077 0-4.0228-.3822-4.2145-.4231v-3.5613c.3439.0866 1.9817.5752 3.6875.5752 1.9434 0 2.8365-.5678 2.8365-1.4448 0-.7843-.7732-1.2371-1.7417-1.5414-.2363-.0791-.5913-.1905-.8338-.2696-2.1747-.6878-3.9881-1.9657-3.9881-4.5275 0-2.8946 2.1672-4.838 5.7669-4.838 1.9013 0 3.6901.4614 3.8063.4924z"/><path d="m3.87804 14.5965c0-1.0663-.87086-1.931-1.9384-1.931-1.067545 0-1.93964.8647-1.93964 1.931v4.0623c0 1.0725.872095 1.9384 1.93964 1.9384 1.06754 0 1.9384-.8659 1.9384-1.9384z"/><path d="m46.4773 14.5596c0-1.0663-.8709-1.9309-1.9384-1.9309-1.0676 0-1.9397.8646-1.9397 1.9309v4.0624c0 1.0725.8721 1.9384 1.9397 1.9384 1.0675 0 1.9384-.8659 1.9384-1.9384z"/><path d="m14.5278 9.26433c0-1.06631-.8708-1.93346-1.9384-1.93346-1.0688 0-1.9396.86715-1.9396 1.93346v9.39507c0 1.0725.8708 1.9372 1.9396 1.9372 1.0676 0 1.9384-.8647 1.9384-1.9372z"/><path d="m57.1271 9.22749c0-1.06631-.8709-1.93345-1.9384-1.93345-1.0688 0-1.9397.86714-1.9397 1.93345v9.39511c0 1.0725.8709 1.9372 1.9397 1.9372 1.0675 0 1.9384-.8647 1.9384-1.9372z"/><path d="m25.1779 1.96905c0-1.066305-.8709-1.9322153-1.9384-1.9322153-1.0688 0-1.9396.8659103-1.9396 1.9322153v20.55055c0 1.0725.8708 1.9384 1.9396 1.9384 1.0675 0 1.9384-.8659 1.9384-1.9384z"/><path d="m67.7771 1.93222c0-1.06631-.8708-1.93222-1.9384-1.93222-1.0688 0-1.9396.86591-1.9396 1.93222v20.55048c0 1.0725.8708 1.9384 1.9396 1.9384 1.0676 0 1.9384-.8659 1.9384-1.9384z"/><path d="m35.8278 9.26433c0-1.06631-.8708-1.93346-1.9384-1.93346-1.0688 0-1.9396.86715-1.9396 1.93346v9.39507c0 1.0725.8708 1.9372 1.9396 1.9372 1.0676 0 1.9384-.8647 1.9384-1.9372z"/><path d="m78.4271 9.22749c0-1.06631-.8709-1.93345-1.9384-1.93345-1.0688 0-1.9397.86714-1.9397 1.93345v9.39511c0 1.0725.8709 1.9372 1.9397 1.9372 1.0675 0 1.9384-.8647 1.9384-1.9372z"/><path d="m89.0649 14.5596c0-1.0663-.8647-1.9309-1.9272-1.9309-1.0676 0-1.9385.8646-1.9385 1.9309v4.0624c0 1.0725.8709 1.9384 1.9385 1.9384 1.0625 0 1.9272-.8659 1.9272-1.9384z"/></g></svg>