<?xml version="1.0" encoding="UTF-8"?>
<svg xmlns="http://www.w3.org/2000/svg" xmlns:xlink="http://www.w3.org/1999/xlink" width="101px" height="40px" viewBox="0 0 100 40" version="1.1">
<g id="surface1">
<path style=" stroke:none;fill-rule:nonzero;fill:rgb(0%,33.72549%,32.156863%);fill-opacity:1;" d="M 23.125 27.539062 L 21.671875 27.539062 L 21.671875 40 L 31.242188 40 L 31.242188 38.671875 L 23.125 38.671875 Z M 23.125 27.539062 "/>
<path style=" stroke:none;fill-rule:nonzero;fill:rgb(0%,33.72549%,32.156863%);fill-opacity:1;" d="M 40.851562 27.539062 L 34.421875 40 L 35.992188 40 L 37.84375 36.414062 L 45.375 36.414062 L 47.222656 40 L 48.851562 40 L 42.394531 27.539062 Z M 38.425781 35.199219 L 41.542969 29.105469 L 41.613281 29.105469 L 44.75 35.199219 Z M 38.425781 35.199219 "/>
<path style=" stroke:none;fill-rule:nonzero;fill:rgb(0%,33.72549%,32.156863%);fill-opacity:1;" d="M 61.644531 33.675781 L 61.644531 33.605469 C 63.085938 33.128906 63.671875 32.132812 63.671875 30.785156 C 63.738281 29.808594 63.28125 28.875 62.476562 28.328125 C 61.316406 27.605469 59.773438 27.546875 57.328125 27.546875 L 52.953125 27.546875 L 52.953125 40.007812 L 57.933594 40.007812 C 60.460938 40.007812 62.136719 39.953125 63.28125 39.007812 C 63.984375 38.441406 64.375 37.566406 64.332031 36.660156 C 64.34375 34.796875 63.257812 33.976562 61.644531 33.675781 Z M 54.425781 28.765625 L 57.851562 28.765625 C 60.476562 28.765625 62.234375 28.949219 62.234375 30.941406 C 62.234375 32.75 60.859375 33.191406 57.851562 33.191406 L 54.425781 33.191406 Z M 58.523438 38.785156 L 54.414062 38.785156 L 54.414062 34.402344 L 58.507812 34.402344 C 61.035156 34.402344 62.875 34.566406 62.875 36.574219 C 62.875 38.417969 61.570312 38.78125 58.507812 38.78125 Z M 58.523438 38.785156 "/>
<path style=" stroke:none;fill-rule:nonzero;fill:rgb(0%,33.72549%,32.156863%);fill-opacity:1;" d="M 74.265625 33.085938 C 73.3125 32.953125 72.367188 32.753906 71.4375 32.492188 C 70.410156 32.179688 70.113281 31.617188 70.113281 30.722656 C 70.113281 29.9375 70.375 29.304688 71.4375 28.972656 C 72.191406 28.792969 72.964844 28.710938 73.742188 28.730469 C 74.824219 28.730469 76.179688 28.816406 77.578125 28.957031 L 77.578125 27.695312 C 76.199219 27.589844 74.960938 27.519531 73.757812 27.519531 C 72.746094 27.519531 71.457031 27.609375 70.511719 28.046875 C 69.152344 28.660156 68.785156 29.796875 68.785156 30.882812 C 68.785156 33.03125 70.125 33.734375 72.691406 34.171875 C 73.679688 34.324219 74.65625 34.527344 75.621094 34.785156 C 76.667969 35.117188 76.980469 35.710938 76.980469 36.621094 C 76.980469 37.445312 76.71875 38.160156 75.640625 38.476562 C 74.8125 38.679688 73.964844 38.769531 73.113281 38.738281 C 71.894531 38.738281 70.375 38.652344 68.804688 38.511719 L 68.804688 39.832031 C 70.375 39.9375 71.769531 40.007812 73.136719 40.007812 C 74.28125 40.007812 75.554688 39.921875 76.515625 39.464844 C 77.929688 38.816406 78.320312 37.652344 78.320312 36.523438 C 78.328125 34.261719 76.914062 33.507812 74.265625 33.085938 Z M 74.265625 33.085938 "/>
<path style=" stroke:none;fill-rule:nonzero;fill:rgb(0%,33.72549%,32.156863%);fill-opacity:1;" d="M 6.714844 10.777344 L 12.417969 10.777344 L 12.417969 6.480469 L 6.714844 6.480469 L 6.714844 4.347656 L 15.460938 4.347656 L 15.460938 0 L 1.601562 0 L 1.601562 10.78125 L 6.714844 10.78125 Z M 6.714844 10.777344 "/>
<path style=" stroke:none;fill-rule:nonzero;fill:rgb(0%,33.72549%,32.156863%);fill-opacity:1;" d="M 6.726562 13.152344 L 15.460938 13.152344 L 15.460938 17.5 L 6.726562 17.5 Z M 6.726562 13.152344 "/>
<path style=" stroke:none;fill-rule:nonzero;fill:rgb(0%,33.72549%,32.156863%);fill-opacity:1;" d="M 25.632812 8.5625 C 25.855469 9.023438 26.113281 9.464844 26.410156 9.882812 L 31.957031 17.488281 L 36.394531 17.488281 L 36.394531 0 L 31.28125 0 L 31.28125 9.074219 C 31.058594 8.613281 30.796875 8.167969 30.5 7.75 L 24.960938 0 L 20.519531 0 L 20.519531 17.5 L 25.632812 17.5 Z M 25.632812 8.5625 "/>
<path style=" stroke:none;fill-rule:nonzero;fill:rgb(0%,33.72549%,32.156863%);fill-opacity:1;" d="M 70.785156 0 C 65.375 0 61.765625 3.882812 61.765625 8.691406 C 61.765625 13.5 65.375 17.445312 70.785156 17.445312 C 76.199219 17.445312 79.804688 13.5625 79.804688 8.691406 C 79.804688 3.820312 76.1875 0 70.785156 0 Z M 70.785156 12.976562 C 68.527344 12.976562 66.914062 11.207031 66.914062 8.707031 C 66.914062 6.203125 68.65625 4.484375 70.785156 4.484375 C 73.070312 4.484375 74.679688 6.253906 74.679688 8.707031 C 74.679688 11.15625 73.070312 12.976562 70.785156 12.976562 Z M 70.785156 12.976562 "/>
<path style=" stroke:none;fill-rule:nonzero;fill:rgb(0%,33.72549%,32.156863%);fill-opacity:1;" d="M 96.46875 12.285156 C 98.207031 11.054688 99.230469 9.046875 99.214844 6.914062 C 99.214844 3.105469 96.46875 0 91.113281 0 L 83.417969 0 L 83.417969 4.363281 L 91.199219 4.363281 C 91.886719 4.339844 92.554688 4.601562 93.050781 5.085938 C 93.542969 5.570312 93.816406 6.234375 93.808594 6.925781 C 93.820312 7.625 93.542969 8.296875 93.042969 8.78125 C 92.542969 9.269531 91.867188 9.527344 91.171875 9.496094 L 83.4375 9.496094 L 83.4375 17.5 L 88.550781 17.5 L 88.550781 13.824219 L 90.648438 13.824219 C 91.070312 13.824219 91.492188 13.796875 91.910156 13.746094 L 93.902344 17.5 L 99.746094 17.5 Z M 96.46875 12.285156 "/>
<path style=" stroke:none;fill-rule:nonzero;fill:rgb(0%,94.117647%,47.058824%);fill-opacity:1;" d="M 5.398438 15.324219 C 5.398438 13.90625 4.25 12.753906 2.835938 12.753906 C 1.421875 12.753906 0.273438 13.90625 0.273438 15.324219 C 0.273438 16.746094 1.421875 17.894531 2.835938 17.894531 C 4.25 17.894531 5.398438 16.746094 5.398438 15.324219 Z M 5.398438 15.324219 "/>
<path style=" stroke:none;fill-rule:nonzero;fill:rgb(0%,33.72549%,32.156863%);fill-opacity:1;" d="M 48.71875 0 L 41.453125 0 L 41.453125 10.8125 L 46.566406 10.8125 L 46.566406 4.34375 L 48.527344 4.34375 C 51.140625 4.34375 52.808594 6.234375 52.808594 8.746094 C 52.808594 11.253906 51.148438 13.152344 48.527344 13.152344 L 41.453125 13.152344 L 41.453125 17.496094 L 48.71875 17.496094 C 54.558594 17.496094 58.214844 13.515625 58.214844 8.746094 C 58.214844 3.976562 54.558594 0 48.71875 0 Z M 48.71875 0 "/>
</g>
</svg>
