<svg width="128" height="28" viewBox="0 0 128 28" fill="none" xmlns="http://www.w3.org/2000/svg">
<g clip-path="url(#clip0_222_12157)">
<rect width="68" height="27" transform="translate(0 0.5)" fill="#313131"/>
<path fill-rule="evenodd" clip-rule="evenodd" d="M14 6C9.58 6 6 9.58 6 14C6 17.54 8.29 20.53 11.47 21.59C11.87 21.66 12.02 21.42 12.02 21.21C12.02 21.02 12.01 20.39 12.01 19.72C10 20.09 9.48 19.23 9.32 18.78C9.23 18.55 8.84 17.84 8.5 17.65C8.22 17.5 7.82 17.13 8.49 17.12C9.12 17.11 9.57 17.7 9.72 17.94C10.44 19.15 11.59 18.81 12.05 18.6C12.12 18.08 12.33 17.73 12.56 17.53C10.78 17.33 8.92 16.64 8.92 13.58C8.92 12.71 9.23 11.99 9.74 11.43C9.66 11.23 9.38 10.41 9.82 9.31C9.82 9.31 10.49 9.1 12.02 10.13C12.66 9.95 13.34 9.86 14.02 9.86C14.7 9.86 15.38 9.95 16.02 10.13C17.55 9.09 18.22 9.31 18.22 9.31C18.66 10.41 18.38 11.23 18.3 11.43C18.81 11.99 19.12 12.7 19.12 13.58C19.12 16.65 17.25 17.33 15.47 17.53C15.76 17.78 16.01 18.26 16.01 19.01C16.01 20.08 16 20.94 16 21.21C16 21.42 16.15 21.67 16.55 21.59C18.1381 21.0539 19.5182 20.0332 20.4958 18.6716C21.4735 17.3101 21.9996 15.6762 22 14C22 9.58 18.42 6 14 6Z" fill="#F2F1EE"/>
<path d="M33.496 19.66C36.128 19.66 37.896 18.252 37.896 16.276C37.896 14.812 37.112 13.62 35.008 13.148L32.768 12.596C31.616 12.316 31.04 11.844 31.04 10.956C31.04 9.996 31.832 9.188 33.416 9.188C34.744 9.188 35.856 9.708 36 11.18H37.744C37.728 9.372 36.232 7.788 33.472 7.788C31.056 7.788 29.24 9.092 29.24 11.108C29.24 12.908 30.368 13.788 32.064 14.18L34.384 14.756C35.568 15.068 36.16 15.54 36.16 16.428C36.16 17.612 34.952 18.268 33.584 18.268C32.096 18.268 30.944 17.604 30.672 16.364H28.888C29.176 18.548 31.232 19.66 33.496 19.66ZM42.5316 19.556C43.1956 19.556 43.6116 19.484 43.8196 19.396V18.284H42.8596C42.1556 18.284 41.9316 18.204 41.9316 17.396L41.9236 12.46H43.7796V11.22H41.9236V8.796H40.6756L40.2596 11.228H38.8596V12.46H40.2036V17.46C40.2036 18.788 40.6916 19.556 42.5316 19.556ZM47.6925 19.66C48.8685 19.66 49.8365 19.244 50.4605 17.98L50.5885 19.5H52.0445V13.716C52.0445 12.012 50.9965 11.068 48.7405 11.068C46.7165 11.068 45.4125 11.94 45.3245 13.596H46.8045C47.0205 12.676 47.7885 12.3 48.6605 12.292C49.8445 12.284 50.3965 12.868 50.3965 13.812V14.412L49.0365 14.452C46.1805 14.5 44.9485 15.396 44.9485 17.228C44.9485 18.764 46.0925 19.66 47.6925 19.66ZM48.2285 18.468C47.2765 18.468 46.5965 17.948 46.5965 17.06C46.5965 15.892 47.5725 15.452 49.2765 15.428L50.3965 15.404V16.772C50.3885 17.636 49.2685 18.468 48.2285 18.468ZM53.9188 19.5H55.6308V14.524C55.6308 13.22 56.5988 12.612 58.0628 12.716C58.2148 12.724 58.4708 12.74 58.6148 12.804V11.156C58.4948 11.092 58.2708 11.068 58.0548 11.068C56.9348 11.068 55.9668 11.708 55.5588 12.924V11.228H53.9188V19.5Z" fill="#F2F1EE"/>
<rect x="68.5" y="1" width="59" height="26" stroke="#313131"/>
</g>
<rect x="0.5" y="1" width="127" height="26" rx="13" stroke="#313131"/>
<defs>
<clipPath id="clip0_222_12157">
<rect y="0.5" width="128" height="27" rx="13.5" fill="white"/>
</clipPath>
</defs>
</svg>
