<svg width="110" height="36" viewBox="0 0 110 36" fill="none" xmlns="http://www.w3.org/2000/svg">
<path d="M2.32 9.44H0.6V0.719999H5.08V2.16H2.32V9.44ZM10.392 15.2C12.972 15.2 14.752 14.03 14.752 11.96C14.752 11.02 14.262 9.51 11.962 8.94L10.282 8.56C9.15203 8.34 8.64203 8.05 8.64203 7.51C8.64203 6.78 9.37203 6.42 10.372 6.42C11.352 6.42 12.042 6.87 12.192 7.67H14.632C14.602 5.64 12.952 4.46 10.412 4.46C7.58203 4.46 6.06203 5.87 6.07203 7.73C6.08203 9.44 7.29203 10.31 9.12203 10.69L10.942 11.07C11.882 11.25 12.252 11.56 12.252 12.12C12.252 12.86 11.492 13.2 10.382 13.2C9.57203 13.2 8.54203 12.84 8.27203 11.74H5.75203C6.12203 14.19 8.23203 15.2 10.392 15.2ZM20.9289 15.2C23.0789 15.2 25.2389 13.93 25.5889 11.72H22.9589C22.6589 12.69 21.8589 13.09 20.8589 13.09C19.4589 13.09 18.6389 12.08 18.6489 10.5H25.5989V9.71C25.5989 6.61 23.9389 4.46 20.7789 4.46C17.6089 4.46 15.7589 6.84 15.7589 9.95C15.7589 13.16 17.8589 15.2 20.9289 15.2ZM18.6489 8.76C18.6389 7.62 19.4289 6.5 20.7689 6.5C22.1789 6.5 22.8689 7.51 22.8689 8.76H18.6489ZM31.6023 15.2C34.1323 15.2 35.8023 13.53 35.9323 11.39H33.5623C33.4423 12.1 32.8623 13.13 31.6823 13.13C30.2023 13.13 29.3323 11.87 29.3323 9.85C29.3323 7.72 30.2623 6.68 31.6223 6.68C32.8223 6.68 33.4023 7.61 33.5323 8.43H35.9623C35.8023 6.21 34.1923 4.46 31.6023 4.46C28.5923 4.46 26.6123 6.66 26.6123 9.87C26.6123 13.18 28.7223 15.2 31.6023 15.2ZM41.1717 15.2C42.3917 15.21 43.8517 14.76 44.2217 12.95L44.5617 15H46.7617V4.66H43.8717V11.39C43.8717 12.46 43.1417 13.08 42.0017 13.08C40.7917 13.08 40.1517 12.4 40.1517 11.44V4.66H37.2317V11.81C37.2317 14.01 39.2717 15.19 41.1717 15.2ZM48.7148 15H51.6348V9.34C51.6348 7.95 52.5148 7.03 54.8148 7.23C54.9548 7.24 55.1348 7.25 55.2548 7.3V4.52C55.1748 4.48 54.9948 4.46 54.8048 4.46C53.1748 4.46 52.0148 5.53 51.5248 7.11V4.66H48.7148V15ZM56.357 3.18H59.197V0.549999H56.357V3.18ZM56.387 15H59.177V4.66H56.387V15ZM65.5491 15.11C66.5591 15.11 67.0791 14.98 67.3591 14.86V13.06H65.9691C65.3291 13.06 65.0491 12.96 65.0491 12.2L65.0291 6.69H67.3291V4.65H65.0291V1.54H62.9491L62.2091 4.66H60.4391V6.69H62.1191V12.32C62.1191 13.98 62.8191 15.11 65.5491 15.11ZM70.4294 18.3C72.0394 18.3 73.2894 17.7 74.3694 15.06L78.5594 4.66H75.6994L73.1994 11.4L70.7194 4.66H67.8294L71.8494 14.57L71.6594 15.14C71.5394 15.44 71.3094 16.24 69.5194 16.13L68.4894 16.09V17.95C68.4894 17.95 69.0094 18.3 70.4294 18.3ZM10.392 32.2C12.972 32.2 14.752 31.03 14.752 28.96C14.752 28.02 14.262 26.51 11.962 25.94L10.282 25.56C9.15203 25.34 8.64203 25.05 8.64203 24.51C8.64203 23.78 9.37203 23.42 10.372 23.42C11.352 23.42 12.042 23.87 12.192 24.67H14.632C14.602 22.64 12.952 21.46 10.412 21.46C7.58203 21.46 6.06203 22.87 6.07203 24.73C6.08203 26.44 7.29203 27.31 9.12203 27.69L10.942 28.07C11.882 28.25 12.252 28.56 12.252 29.12C12.252 29.86 11.492 30.2 10.382 30.2C9.57203 30.2 8.54203 29.84 8.27203 28.74H5.75203C6.12203 31.19 8.23203 32.2 10.392 32.2ZM20.6789 32.2C23.2089 32.2 24.8789 30.53 25.0089 28.39H22.6389C22.5189 29.1 21.9389 30.13 20.7589 30.13C19.2789 30.13 18.4089 28.87 18.4089 26.85C18.4089 24.72 19.3389 23.68 20.6989 23.68C21.8989 23.68 22.4789 24.61 22.6089 25.43H25.0389C24.8789 23.21 23.2689 21.46 20.6789 21.46C17.6689 21.46 15.6889 23.66 15.6889 26.87C15.6889 30.18 17.7989 32.2 20.6789 32.2ZM30.9873 32.2C34.1373 32.2 35.9873 30 35.9873 26.89C35.9873 23.58 34.0473 21.46 30.9973 21.46C27.9273 21.46 25.9873 23.63 25.9873 26.89C25.9873 30.15 27.9473 32.2 30.9873 32.2ZM30.9973 30.03C29.3573 30.03 28.8373 28.41 28.8373 26.79C28.8373 25.03 29.4473 23.61 30.9973 23.61C32.6173 23.61 33.1273 25.15 33.1273 26.79C33.1273 28.53 32.5273 30.03 30.9973 30.03ZM37.3812 32H40.3012V26.34C40.3012 24.95 41.1812 24.03 43.4812 24.23C43.6212 24.24 43.8012 24.25 43.9212 24.3V21.52C43.8412 21.48 43.6612 21.46 43.4712 21.46C41.8412 21.46 40.6812 22.53 40.1912 24.11V21.66H37.3812V32ZM49.7539 32.2C51.9039 32.2 54.0639 30.93 54.4139 28.72H51.7839C51.4839 29.69 50.6839 30.09 49.6839 30.09C48.2839 30.09 47.4639 29.08 47.4739 27.5H54.4239V26.71C54.4239 23.61 52.7639 21.46 49.6039 21.46C46.4339 21.46 44.5839 23.84 44.5839 26.95C44.5839 30.16 46.6839 32.2 49.7539 32.2ZM47.4739 25.76C47.4639 24.62 48.2539 23.5 49.5939 23.5C51.0039 23.5 51.6939 24.51 51.6939 25.76H47.4739ZM60.4273 32.2C62.9573 32.2 64.6273 30.53 64.7573 28.39H62.3873C62.2673 29.1 61.6873 30.13 60.5073 30.13C59.0273 30.13 58.1573 28.87 58.1573 26.85C58.1573 24.72 59.0873 23.68 60.4473 23.68C61.6473 23.68 62.2273 24.61 62.3573 25.43H64.7873C64.6273 23.21 63.0173 21.46 60.4273 21.46C57.4173 21.46 55.4373 23.66 55.4373 26.87C55.4373 30.18 57.5473 32.2 60.4273 32.2ZM69.2763 32.2C70.7263 32.2 71.7763 31.72 72.4863 30.22L72.7263 32H75.1663V24.73C75.1663 22.7 73.9563 21.46 70.7963 21.46C68.2063 21.46 66.3363 22.5 66.2263 24.74H68.6563C68.9463 23.79 69.8063 23.44 70.6563 23.43C71.8263 23.42 72.3663 23.95 72.3663 24.9V25.52L71.0663 25.54C67.4163 25.58 65.7863 26.78 65.7863 29.04C65.7863 31.06 67.3063 32.2 69.2763 32.2ZM70.2663 30.28C69.3063 30.28 68.5563 29.71 68.5563 28.75C68.5563 27.49 69.8563 27.06 71.3163 27.04L72.3663 27.02V28.55C72.3563 29.44 71.3163 30.28 70.2663 30.28ZM76.9344 32H79.8544V26.34C79.8544 24.95 80.7344 24.03 83.0344 24.23C83.1744 24.24 83.3544 24.25 83.4744 24.3V21.52C83.3944 21.48 83.2144 21.46 83.0244 21.46C81.3944 21.46 80.2344 22.53 79.7444 24.11V21.66H76.9344V32ZM88.467 32.2C90.507 32.2 91.407 31.02 91.777 29.88L92.107 32H94.227V17.14H91.297V23.06C90.797 22.18 89.657 21.46 88.177 21.46C85.517 21.46 84.067 23.53 84.067 26.77C84.067 30.19 85.687 32.2 88.467 32.2ZM89.107 30.1C87.767 30.1 86.917 29.03 86.917 26.73C86.917 24.46 87.857 23.58 89.127 23.58C90.577 23.58 91.277 24.62 91.297 26.73C91.297 29.17 90.577 30.1 89.107 30.1ZM100.285 32.2C102.865 32.2 104.645 31.03 104.645 28.96C104.645 28.02 104.155 26.51 101.855 25.94L100.175 25.56C99.045 25.34 98.535 25.05 98.535 24.51C98.535 23.78 99.265 23.42 100.265 23.42C101.245 23.42 101.935 23.87 102.085 24.67H104.525C104.495 22.64 102.845 21.46 100.305 21.46C97.475 21.46 95.955 22.87 95.965 24.73C95.975 26.44 97.185 27.31 99.015 27.69L100.835 28.07C101.775 28.25 102.145 28.56 102.145 29.12C102.145 29.86 101.385 30.2 100.275 30.2C99.465 30.2 98.435 29.84 98.165 28.74H95.645C96.015 31.19 98.125 32.2 100.285 32.2ZM108.082 26.44H109.802V35.16H105.322V33.72H108.082V26.44Z" fill="#23252B"/>
</svg>