<svg width="60" height="60" fill="none" xmlns="http://www.w3.org/2000/svg"><path fill-rule="evenodd" clip-rule="evenodd" d="M42 21c0 6.627-5.373 12-12 12s-12-5.373-12-12S23.373 9 30 9s12 5.373 12 12Zm-10 2.333a3.233 3.233 0 0 0 1.952 1.553 3.116 3.116 0 0 0 2.44-.333 3.32 3.32 0 0 0 1.498-2.024A3.44 3.44 0 0 0 37.57 20L32 23.333Zm-5.952 1.553A3.233 3.233 0 0 0 28 23.333L22.43 20a3.44 3.44 0 0 0-.32 2.53 3.32 3.32 0 0 0 1.498 2.023 3.116 3.116 0 0 0 2.44.333Z" fill="#FF4D00"/><path d="M47 36H13l4.611 15H42.39L47 36Z" stroke="#302825" stroke-width="2" stroke-linejoin="round"/><path d="M15 1H3a2 2 0 0 0-2 2v27M45 59h12a2 2 0 0 0 2-2V30" stroke="#302825" stroke-width="2"/></svg>