<svg fill="none" height="29" viewBox="0 0 87 29" width="87" xmlns="http://www.w3.org/2000/svg" xmlns:xlink="http://www.w3.org/1999/xlink"><clipPath id="a"><path d="m.064941.35498h86.0537v28.27h-86.0537z"/></clipPath><g clip-path="url(#a)" fill="#489fdd"><path d="m13.6286 21.8348c-.5883 1.5463-2.3027 2.6387-4.20188 2.6387-2.99178 0-4.90783-2.4706-4.90783-6.3027 0-3.9834 1.93285-6.4709 5.04222-6.4709 1.88249 0 3.69759 1.1766 4.15149 2.7229.2521.7563.3361 1.7984.3361 3.9497 0 1.6975-.1177 2.7564-.4201 3.4623zm.4705-21.463017v9.244057c-1.6304-1.37821-3.143-1.96647-5.21029-1.96647-5.21028 0-8.8238686 4.23543-8.8238686 10.37013 0 6.1683 3.6976186 10.5382 8.9415886 10.5382 1.96637 0 3.69767-.6723 5.07577-2.0168v1.5462h4.2354v-27.732124z"/><path d="m32.8057 21.7508c0 1.1765-.1681 1.6303-.7563 2.1345-.7564.6723-2.0505 1.1429-3.143 1.1429-2.0505 0-3.748-1.3446-3.748-2.9917 0-1.3446.8907-2.1345 2.8572-2.6052 1.311-.3025 2.3867-.4201 4.7901-.6722zm4.2859-.3698v-7.3617c0-2.3866-.2521-3.311-1.2942-4.40346-1.2101-1.31098-3.4455-2.01689-6.2187-2.01689-2.8068 0-5.6305.6723-8.3533 2.0505l1.7648 3.39505c2.8068-1.2102 4.2018-1.5462 6.1347-1.5462 2.6051 0 3.664.9243 3.6976 3.1933v.6387c-3.3951.3361-4.538.4707-5.8826.7059-4.2858.8404-6.3027 2.7229-6.3027 5.9163 0 3.7816 3.2774 6.6389 7.5969 6.6389 2.3026 0 4.1178-.8404 5.412-2.4707.4202 1.3782 1.5463 2.2186 3.4455 2.4707l2.1513-3.2775c-1.9496-.7899-2.1513-1.2101-2.1513-3.9329z"/><path d="m46.5709 21.2129c0 2.4707.5042 3.059 2.6052 3.059.7059 0 1.5126-.0841 2.3866-.2522l.5378 3.7313c-1.3782.3697-2.9412.5882-4.2858.5882-3.9498 0-5.4961-1.6303-5.4961-5.7145v-10.9248h-3.6472v-3.64716h3.6472v-6.1683l4.2355-1.512667v7.680967h5.2775v3.64716h-5.2607z"/><path d="m61.2101 21.2129c0 2.4707.5043 3.059 2.6052 3.059.7059 0 1.5127-.0841 2.3866-.2522l.5379 3.7313c-1.3782.3697-2.9413.5882-4.2859.5882-3.9497 0-5.496-1.6303-5.496-5.7145v-10.9248h-3.6472v-3.64716h3.6472v-6.1683l4.2354-1.512667v7.680967h5.2607v3.64716h-5.2607z"/><path d="m76.4544 24.4904c-3.1094 0-5.1599-2.5548-5.1599-6.3868 0-3.8322 2.101-6.4709 5.2103-6.4709 3.0253 0 5.0422 2.5715 5.0422 6.4709 0 3.8152-2.0673 6.3868-5.0926 6.3868zm-.1681-16.94187c-5.58 0-9.328 4.25227-9.328 10.62227 0 6.1683 3.9497 10.4542 9.6642 10.4542 5.5968 0 9.4961-4.3195 9.4961-10.4542 0-6.286-3.9833-10.62227-9.8323-10.62227z"/></g></svg>