<svg fill="none" height="40" viewBox="0 0 121 40" width="121" xmlns="http://www.w3.org/2000/svg" xmlns:xlink="http://www.w3.org/1999/xlink"><clipPath id="a"><path d="m.118652.990234h120.25v39h-120.25z"/></clipPath><g clip-path="url(#a)"><path d="m15.1337 14.299v3.9975h9.555c-.2925 2.2425-1.04 3.8837-2.1775 5.0375-1.3975 1.3975-3.575 2.925-7.3775 2.925-5.88253 0-10.48128-4.745-10.48128-10.6275 0-5.88252 4.59875-10.62752 10.48128-10.62752 3.1687 0 5.4925 1.25125 7.1987 2.86l2.8113-2.81125c-2.3725-2.3075-5.5575-4.062496-10.01-4.062496-8.06003 0-14.836276 6.564996-14.836276 14.624966 0 8.06 6.776246 14.625 14.836276 14.625 4.355 0 7.6375-1.43 10.205-4.095 2.6325-2.6325 3.4612-6.3537 3.4612-9.3437 0-.9263-.065-1.7875-.2112-2.5025z" fill="#4285f4"/><path d="m40.7436 11.049c-5.2162 0-9.4737 3.965-9.4737 9.4412 0 5.4275 4.2575 9.4413 9.4737 9.4413 5.2163 0 9.4738-3.9975 9.4738-9.4413 0-5.4762-4.2575-9.4412-9.4738-9.4412zm0 15.1612c-2.86 0-5.33-2.3562-5.33-5.72 0-3.3962 2.47-5.72 5.33-5.72s5.3301 2.3238 5.3301 5.72c0 3.3638-2.4701 5.72-5.3301 5.72z" fill="#ea4335"/><path d="m87.1862 13.1615h-.1463c-.9262-1.105-2.7137-2.1125-4.9725-2.1125-4.7125 0-8.8237 4.1112-8.8237 9.4412 0 5.2975 4.1112 9.4413 8.8237 9.4413 2.2588 0 4.0463-1.0075 4.9725-2.145h.1463v1.3162c0 3.6075-1.9338 5.5413-5.0375 5.5413-2.535 0-4.1113-1.82-4.7613-3.3638l-3.6075 1.495c1.04 2.5025 3.7863 5.5738 8.3688 5.5738 4.8587 0 8.97-2.86 8.97-9.8313v-16.9812h-3.9325zm-4.7613 13.0487c-2.86 0-5.0375-2.4375-5.0375-5.72 0-3.3312 2.1775-5.72 5.0375-5.72 2.8275 0 5.0375 2.4375 5.0375 5.7525.0163 3.2988-2.21 5.6875-5.0375 5.6875z" fill="#4285f4"/><path d="m61.8686 11.049c-5.2162 0-9.4737 3.965-9.4737 9.4412 0 5.4275 4.2575 9.4413 9.4737 9.4413 5.2163 0 9.4738-3.9975 9.4738-9.4413 0-5.4762-4.2575-9.4412-9.4738-9.4412zm0 15.1612c-2.86 0-5.3299-2.3562-5.3299-5.72 0-3.3962 2.4699-5.72 5.3299-5.72s5.33 2.3238 5.33 5.72c0 3.3638-2.47 5.72-5.33 5.72z" fill="#fbbc05"/><path d="m94.3687 1.38025h4.0787v28.55125h-4.0787z" fill="#34a853"/><path d="m111.041 26.2102c-2.112 0-3.607-.9587-4.582-2.86l12.626-5.2162-.423-1.0725c-.78-2.1125-3.185-6.0125-8.076-6.0125-4.859 0-8.905 3.8187-8.905 9.4412 0 5.2975 3.998 9.4413 9.36 9.4413 4.323 0 6.825-2.6488 7.865-4.1763l-3.217-2.145c-1.073 1.56-2.535 2.6-4.648 2.6zm-.292-11.6187c1.673 0 3.103.8612 3.575 2.08l-8.532 3.5262c0-3.965 2.812-5.6062 4.957-5.6062z" fill="#ea4335"/></g></svg>