<svg width="60" height="60" fill="none" xmlns="http://www.w3.org/2000/svg"><path stroke="#302825" stroke-width="2" stroke-linejoin="round" d="M10 40h10v10H10zM20 40h10v10H20zM30 40h10v10H30zM20 30h10v10H20zM10 20h10v10H10zM30 20h10v10H30zM20 10h10v10H20zM40 30h10v10H40zM40 10h10v10H40zM40 40h10v10H40z"/><path fill="#FF4D00" stroke="#FF4D00" stroke-width="2" stroke-linejoin="round" d="M30 30h10v10H30zM20 20h10v10H20z"/><path d="M15 1H3a2 2 0 0 0-2 2v27M45 59h12a2 2 0 0 0 2-2V30" stroke="#302825" stroke-width="2"/></svg>