<svg width="602" height="583" fill="none" xmlns="http://www.w3.org/2000/svg"><path fill-rule="evenodd" clip-rule="evenodd" d="M301.5 575C459.746 575 588 447.832 588 291S459.746 7 301.5 7 15 134.168 15 291s128.254 284 286.5 284Zm0 2C460.834 577 590 448.953 590 291S460.834 5 301.5 5 13 133.047 13 291s129.166 286 288.5 286Z" fill="#FF4D00"/><path d="M282.45 124.216c-1.056 0-1.956-.27-2.7-.81-.732-.54-1.296-1.296-1.692-2.268-.384-.984-.576-2.124-.576-3.42 0-1.308.192-2.448.576-3.42.396-.984.966-1.746 1.71-2.286.744-.552 1.638-.828 2.682-.828 1.356 0 2.436.372 3.24 1.116.804.732 1.272 1.728 1.404 2.988h-2.106c-.108-.66-.378-1.206-.81-1.638-.42-.444-1.002-.666-1.746-.666-.948 0-1.686.42-2.214 1.26-.528.84-.792 1.998-.792 3.474 0 1.464.264 2.616.792 3.456.528.828 1.266 1.242 2.214 1.242.768 0 1.356-.198 1.764-.594.408-.408.672-.942.792-1.602h2.106c-.192 1.236-.678 2.214-1.458 2.934-.78.708-1.842 1.062-3.186 1.062ZM293.207 124.216c-1.02 0-1.902-.264-2.646-.792s-1.314-1.278-1.71-2.25c-.396-.972-.594-2.13-.594-3.474 0-1.344.198-2.502.594-3.474.396-.972.966-1.722 1.71-2.25s1.626-.792 2.646-.792c1.032 0 1.914.264 2.646.792.744.528 1.314 1.278 1.71 2.25.396.972.594 2.13.594 3.474 0 1.344-.198 2.502-.594 3.474-.396.972-.966 1.722-1.71 2.25-.732.528-1.614.792-2.646.792Zm0-1.8c.9 0 1.626-.402 2.178-1.206.552-.816.828-1.986.828-3.51 0-1.524-.276-2.688-.828-3.492-.552-.816-1.278-1.224-2.178-1.224-.912 0-1.644.408-2.196 1.224-.54.804-.81 1.968-.81 3.492s.27 2.694.81 3.51c.552.804 1.284 1.206 2.196 1.206ZM299.626 124v-12.6h3.024c2.028 0 3.534.564 4.518 1.692.984 1.116 1.476 2.652 1.476 4.608 0 1.956-.492 3.498-1.476 4.626-.984 1.116-2.49 1.674-4.518 1.674h-3.024Zm1.908-1.764h1.044c1.464 0 2.52-.408 3.168-1.224.648-.828.972-1.932.972-3.312s-.324-2.478-.972-3.294c-.648-.828-1.704-1.242-3.168-1.242h-1.044v9.072ZM310.833 124v-12.6h8.046v1.71h-6.138v3.672h5.598v1.692h-5.598v3.816h6.138V124h-8.046ZM221.918 143l-3.888-12.6h2.052l2.97 10.08 2.97-10.08h2.052l-3.888 12.6h-2.268ZM233.809 143.216c-.852 0-1.614-.174-2.286-.522-.66-.348-1.182-.876-1.566-1.584-.384-.72-.576-1.626-.576-2.718V130.4h1.908v8.1c0 .96.228 1.704.684 2.232.456.516 1.08.774 1.872.774s1.416-.258 1.872-.774c.456-.528.684-1.272.684-2.232v-8.1h1.908v7.992c0 1.092-.198 1.998-.594 2.718-.396.708-.936 1.236-1.62 1.584-.672.348-1.434.522-2.286.522ZM240.696 143v-12.6h1.908v10.89h6.21V143h-8.118ZM250.949 143v-12.6h1.872l5.274 9.234V130.4h1.818V143h-1.872l-5.274-9.234V143h-1.818ZM262.264 143v-12.6h8.046v1.71h-6.138v3.672h5.598v1.692h-5.598v3.816h6.138V143h-8.046ZM272.967 143v-12.6h4.122c.984 0 1.794.168 2.43.504.648.336 1.128.792 1.44 1.368.324.564.486 1.206.486 1.926 0 .816-.21 1.542-.63 2.178-.408.624-1.038 1.08-1.89 1.368l2.646 5.256h-2.214l-2.412-4.986h-2.07V143h-1.908Zm1.908-6.714h2.106c.864 0 1.494-.192 1.89-.576.408-.384.612-.888.612-1.512 0-.636-.198-1.14-.594-1.512-.396-.384-1.038-.576-1.926-.576h-2.088v4.176ZM282.914 143l3.762-12.6h2.268l3.762 12.6h-2.07l-.846-3.024h-3.96l-.846 3.024h-2.07Zm4.842-9.9-1.494 5.346h3.096l-1.494-5.346h-.108ZM294.211 143v-12.6h4.5c1.308 0 2.298.3 2.97.9.672.6 1.008 1.374 1.008 2.322 0 .732-.192 1.326-.576 1.782a3.402 3.402 0 0 1-1.332.99v.126c.6.216 1.116.57 1.548 1.062.432.48.648 1.116.648 1.908 0 .648-.162 1.242-.486 1.782-.312.528-.774.948-1.386 1.26-.612.312-1.362.468-2.25.468h-4.644Zm1.908-7.344h2.358c.732 0 1.29-.144 1.674-.432.384-.3.576-.75.576-1.35 0-1.188-.762-1.782-2.286-1.782h-2.322v3.564Zm0 5.58h2.484c.78 0 1.38-.168 1.8-.504.42-.336.63-.828.63-1.476 0-.636-.222-1.122-.666-1.458-.444-.348-1.044-.522-1.8-.522h-2.448v3.96ZM305.706 143v-1.692h2.736v-9.216h-2.7V130.4h7.308v1.692h-2.7v9.216h2.736V143h-7.38ZM316.247 143v-12.6h1.908v10.89h6.21V143h-8.118ZM327.292 143v-1.692h2.736v-9.216h-2.7V130.4h7.308v1.692h-2.7v9.216h2.736V143h-7.38ZM340.821 143v-10.89h-3.384v-1.71h8.676v1.71h-3.384V143h-1.908ZM348.878 143v-1.692h2.736v-9.216h-2.7V130.4h7.308v1.692h-2.7v9.216h2.736V143h-7.38ZM359.401 143v-12.6h8.046v1.71h-6.138v3.672h5.598v1.692h-5.598v3.816h6.138V143h-8.046ZM374.28 143.216c-.888 0-1.668-.162-2.34-.486a3.815 3.815 0 0 1-1.566-1.386c-.372-.6-.564-1.314-.576-2.142h2.016c.012.636.228 1.182.648 1.638.432.444 1.032.666 1.8.666.708 0 1.26-.162 1.656-.486.396-.336.594-.768.594-1.296 0-.444-.12-.81-.36-1.098-.228-.3-.588-.564-1.08-.792-.492-.24-1.128-.486-1.908-.738-1.044-.336-1.812-.798-2.304-1.386-.492-.6-.738-1.332-.738-2.196 0-.996.36-1.8 1.08-2.412.72-.612 1.71-.918 2.97-.918 1.224 0 2.208.318 2.952.954.744.624 1.128 1.494 1.152 2.61h-2.034c0-.3-.084-.588-.252-.864a1.928 1.928 0 0 0-.72-.702c-.312-.192-.696-.288-1.152-.288-.564-.012-1.038.126-1.422.414a1.322 1.322 0 0 0-.576 1.134c0 .588.234 1.05.702 1.386.468.324 1.23.66 2.286 1.008.66.216 1.242.48 1.746.792.516.3.918.69 1.206 1.17.3.468.45 1.068.45 1.8 0 .672-.168 1.284-.504 1.836-.336.54-.822.972-1.458 1.296-.624.324-1.38.486-2.268.486Z" fill="#302825"/><rect x="205" y="36" width="188" height="188" rx="94" stroke="#302825" stroke-width="2"/><path d="M395.913 249v-12.6h2.016l2.61 5.688 2.61-5.688h2.016V249h-1.818v-8.964l-2.052 4.5h-1.512l-2.052-4.482V249h-1.818ZM406.436 249l3.762-12.6h2.268l3.762 12.6h-2.07l-.846-3.024h-3.96l-.846 3.024h-2.07Zm4.842-9.9-1.494 5.346h3.096l-1.494-5.346h-.108ZM418.435 249v-1.692h2.736v-9.216h-2.7V236.4h7.308v1.692h-2.7v9.216h2.736V249h-7.38ZM428.436 249v-12.6h1.872l5.274 9.234V236.4h1.818V249h-1.872l-5.274-9.234V249h-1.818ZM442.757 249v-10.89h-3.384v-1.71h8.676v1.71h-3.384V249h-1.908ZM450.544 249v-12.6h8.046v1.71h-6.138v3.672h5.598v1.692h-5.598v3.816h6.138V249h-8.046ZM460.815 249v-12.6h1.872l5.274 9.234V236.4h1.818V249h-1.872l-5.274-9.234V249h-1.818ZM471.194 249l3.762-12.6h2.268l3.762 12.6h-2.07l-.846-3.024h-3.96l-.846 3.024h-2.07Zm4.842-9.9-1.494 5.346h3.096l-1.494-5.346h-.108ZM482.401 249v-12.6h1.872l5.274 9.234V236.4h1.818V249h-1.872l-5.274-9.234V249h-1.818ZM497.712 249.216c-1.056 0-1.956-.27-2.7-.81-.732-.54-1.296-1.296-1.692-2.268-.384-.984-.576-2.124-.576-3.42 0-1.308.192-2.448.576-3.42.396-.984.966-1.746 1.71-2.286.744-.552 1.638-.828 2.682-.828 1.356 0 2.436.372 3.24 1.116.804.732 1.272 1.728 1.404 2.988h-2.106c-.108-.66-.378-1.206-.81-1.638-.42-.444-1.002-.666-1.746-.666-.948 0-1.686.42-2.214 1.26-.528.84-.792 1.998-.792 3.474 0 1.464.264 2.616.792 3.456.528.828 1.266 1.242 2.214 1.242.768 0 1.356-.198 1.764-.594.408-.408.672-.942.792-1.602h2.106c-.192 1.236-.678 2.214-1.458 2.934-.78.708-1.842 1.062-3.186 1.062ZM504.509 249v-12.6h8.046v1.71h-6.138v3.672h5.598v1.692h-5.598v3.816h6.138V249h-8.046Z" fill="#302825"/><rect x="360" y="149" width="188" height="188" rx="94" stroke="#302825" stroke-width="2"/><path d="M118.025 239v-12.6h4.5c1.308 0 2.298.3 2.97.9.672.6 1.008 1.374 1.008 2.322 0 .732-.192 1.326-.576 1.782a3.402 3.402 0 0 1-1.332.99v.126c.6.216 1.116.57 1.548 1.062.432.48.648 1.116.648 1.908 0 .648-.162 1.242-.486 1.782-.312.528-.774.948-1.386 1.26-.612.312-1.362.468-2.25.468h-4.644Zm1.908-7.344h2.358c.732 0 1.29-.144 1.674-.432.384-.3.576-.75.576-1.35 0-1.188-.762-1.782-2.286-1.782h-2.322v3.564Zm0 5.58h2.484c.78 0 1.38-.168 1.8-.504.42-.336.63-.828.63-1.476 0-.636-.222-1.122-.666-1.458-.444-.348-1.044-.522-1.8-.522h-2.448v3.96ZM133.174 239.216c-.852 0-1.614-.174-2.286-.522-.66-.348-1.182-.876-1.566-1.584-.384-.72-.576-1.626-.576-2.718V226.4h1.908v8.1c0 .96.228 1.704.684 2.232.456.516 1.08.774 1.872.774s1.416-.258 1.872-.774c.456-.528.684-1.272.684-2.232v-8.1h1.908v7.992c0 1.092-.198 1.998-.594 2.718-.396.708-.936 1.236-1.62 1.584-.672.348-1.434.522-2.286.522ZM140.313 239v-1.692h2.736v-9.216h-2.7V226.4h7.308v1.692h-2.7v9.216h2.736V239h-7.38ZM150.854 239v-12.6h1.908v10.89h6.21V239h-8.118ZM161.215 239v-12.6h3.024c2.028 0 3.534.564 4.518 1.692.984 1.116 1.476 2.652 1.476 4.608 0 1.956-.492 3.498-1.476 4.626-.984 1.116-2.49 1.674-4.518 1.674h-3.024Zm1.908-1.764h1.044c1.464 0 2.52-.408 3.168-1.224.648-.828.972-1.932.972-3.312s-.324-2.478-.972-3.294c-.648-.828-1.704-1.242-3.168-1.242h-1.044v9.072ZM64.402 258v-12.6h4.122c.984 0 1.794.168 2.43.504.648.336 1.128.792 1.44 1.368.324.564.486 1.206.486 1.926 0 .816-.21 1.542-.63 2.178-.408.624-1.038 1.08-1.89 1.368L73.006 258h-2.214l-2.412-4.986h-2.07V258h-1.908Zm1.908-6.714h2.106c.864 0 1.494-.192 1.89-.576.408-.384.612-.888.612-1.512 0-.636-.198-1.14-.594-1.512-.396-.384-1.038-.576-1.926-.576H66.31v4.176ZM75.555 258v-1.692h2.736v-9.216h-2.7V245.4H82.9v1.692h-2.7v9.216h2.736V258h-7.38ZM90.164 258.216c-.888 0-1.668-.162-2.34-.486a3.815 3.815 0 0 1-1.566-1.386c-.372-.6-.564-1.314-.576-2.142h2.016c.012.636.228 1.182.648 1.638.432.444 1.032.666 1.8.666.708 0 1.26-.162 1.656-.486.396-.336.594-.768.594-1.296 0-.444-.12-.81-.36-1.098-.228-.3-.588-.564-1.08-.792-.492-.24-1.128-.486-1.908-.738-1.044-.336-1.812-.798-2.304-1.386-.492-.6-.738-1.332-.738-2.196 0-.996.36-1.8 1.08-2.412.72-.612 1.71-.918 2.97-.918 1.224 0 2.208.318 2.952.954.744.624 1.128 1.494 1.152 2.61h-2.034c0-.3-.084-.588-.252-.864a1.928 1.928 0 0 0-.72-.702c-.312-.192-.696-.288-1.152-.288-.564-.012-1.038.126-1.422.414a1.322 1.322 0 0 0-.576 1.134c0 .588.234 1.05.702 1.386.468.324 1.23.66 2.286 1.008.66.216 1.242.48 1.746.792.516.3.918.69 1.206 1.17.3.468.45 1.068.45 1.8 0 .672-.168 1.284-.504 1.836-.336.54-.822.972-1.458 1.296-.624.324-1.38.486-2.268.486ZM96.8 258v-12.6h1.907v5.76l4.464-5.76h2.358l-4.932 6.246v.108l5.04 6.246h-2.412l-4.518-5.652V258H96.8ZM117.521 258l3.762-12.6h2.268l3.762 12.6h-2.07l-.846-3.024h-3.96l-.846 3.024h-2.07Zm4.842-9.9-1.494 5.346h3.096l-1.494-5.346h-.108ZM133.336 258.216c-.888 0-1.668-.162-2.34-.486a3.815 3.815 0 0 1-1.566-1.386c-.372-.6-.564-1.314-.576-2.142h2.016c.012.636.228 1.182.648 1.638.432.444 1.032.666 1.8.666.708 0 1.26-.162 1.656-.486.396-.336.594-.768.594-1.296 0-.444-.12-.81-.36-1.098-.228-.3-.588-.564-1.08-.792-.492-.24-1.128-.486-1.908-.738-1.044-.336-1.812-.798-2.304-1.386-.492-.6-.738-1.332-.738-2.196 0-.996.36-1.8 1.08-2.412.72-.612 1.71-.918 2.97-.918 1.224 0 2.208.318 2.952.954.744.624 1.128 1.494 1.152 2.61h-2.034c0-.3-.084-.588-.252-.864a1.928 1.928 0 0 0-.72-.702c-.312-.192-.696-.288-1.152-.288-.564-.012-1.038.126-1.422.414a1.322 1.322 0 0 0-.576 1.134c0 .588.234 1.05.702 1.386.468.324 1.23.66 2.286 1.008.66.216 1.242.48 1.746.792.516.3.918.69 1.206 1.17.3.468.45 1.068.45 1.8 0 .672-.168 1.284-.504 1.836-.336.54-.822.972-1.458 1.296-.624.324-1.38.486-2.268.486ZM144.129 258.216c-.888 0-1.668-.162-2.34-.486a3.815 3.815 0 0 1-1.566-1.386c-.372-.6-.564-1.314-.576-2.142h2.016c.012.636.228 1.182.648 1.638.432.444 1.032.666 1.8.666.708 0 1.26-.162 1.656-.486.396-.336.594-.768.594-1.296 0-.444-.12-.81-.36-1.098-.228-.3-.588-.564-1.08-.792-.492-.24-1.128-.486-1.908-.738-1.044-.336-1.812-.798-2.304-1.386-.492-.6-.738-1.332-.738-2.196 0-.996.36-1.8 1.08-2.412.72-.612 1.71-.918 2.97-.918 1.224 0 2.208.318 2.952.954.744.624 1.128 1.494 1.152 2.61h-2.034c0-.3-.084-.588-.252-.864a1.928 1.928 0 0 0-.72-.702c-.312-.192-.696-.288-1.152-.288-.564-.012-1.038.126-1.422.414a1.322 1.322 0 0 0-.576 1.134c0 .588.234 1.05.702 1.386.468.324 1.23.66 2.286 1.008.66.216 1.242.48 1.746.792.516.3.918.69 1.206 1.17.3.468.45 1.068.45 1.8 0 .672-.168 1.284-.504 1.836-.336.54-.822.972-1.458 1.296-.624.324-1.38.486-2.268.486ZM150.836 258v-12.6h8.046v1.71h-6.138v3.672h5.598v1.692h-5.598v3.816h6.138V258h-8.046ZM165.715 258.216c-.888 0-1.668-.162-2.34-.486a3.815 3.815 0 0 1-1.566-1.386c-.372-.6-.564-1.314-.576-2.142h2.016c.012.636.228 1.182.648 1.638.432.444 1.032.666 1.8.666.708 0 1.26-.162 1.656-.486.396-.336.594-.768.594-1.296 0-.444-.12-.81-.36-1.098-.228-.3-.588-.564-1.08-.792-.492-.24-1.128-.486-1.908-.738-1.044-.336-1.812-.798-2.304-1.386-.492-.6-.738-1.332-.738-2.196 0-.996.36-1.8 1.08-2.412.72-.612 1.71-.918 2.97-.918 1.224 0 2.208.318 2.952.954.744.624 1.128 1.494 1.152 2.61h-2.034c0-.3-.084-.588-.252-.864a1.928 1.928 0 0 0-.72-.702c-.312-.192-.696-.288-1.152-.288-.564-.012-1.038.126-1.422.414a1.322 1.322 0 0 0-.576 1.134c0 .588.234 1.05.702 1.386.468.324 1.23.66 2.286 1.008.66.216 1.242.48 1.746.792.516.3.918.69 1.206 1.17.3.468.45 1.068.45 1.8 0 .672-.168 1.284-.504 1.836-.336.54-.822.972-1.458 1.296-.624.324-1.38.486-2.268.486ZM176.508 258.216c-.888 0-1.668-.162-2.34-.486a3.815 3.815 0 0 1-1.566-1.386c-.372-.6-.564-1.314-.576-2.142h2.016c.012.636.228 1.182.648 1.638.432.444 1.032.666 1.8.666.708 0 1.26-.162 1.656-.486.396-.336.594-.768.594-1.296 0-.444-.12-.81-.36-1.098-.228-.3-.588-.564-1.08-.792-.492-.24-1.128-.486-1.908-.738-1.044-.336-1.812-.798-2.304-1.386-.492-.6-.738-1.332-.738-2.196 0-.996.36-1.8 1.08-2.412.72-.612 1.71-.918 2.97-.918 1.224 0 2.208.318 2.952.954.744.624 1.128 1.494 1.152 2.61h-2.034c0-.3-.084-.588-.252-.864a1.928 1.928 0 0 0-.72-.702c-.312-.192-.696-.288-1.152-.288-.564-.012-1.038.126-1.422.414a1.322 1.322 0 0 0-.576 1.134c0 .588.234 1.05.702 1.386.468.324 1.23.66 2.286 1.008.66.216 1.242.48 1.746.792.516.3.918.69 1.206 1.17.3.468.45 1.068.45 1.8 0 .672-.168 1.284-.504 1.836-.336.54-.822.972-1.458 1.296-.624.324-1.38.486-2.268.486ZM182.549 258v-12.6h2.016l2.61 5.688 2.61-5.688h2.016V258h-1.818v-8.964l-2.052 4.5h-1.512l-2.052-4.482V258h-1.818ZM194.008 258v-12.6h8.046v1.71h-6.138v3.672h5.598v1.692h-5.598v3.816h6.138V258h-8.046ZM204.279 258v-12.6h1.872l5.274 9.234V245.4h1.818V258h-1.872l-5.274-9.234V258h-1.818ZM218.6 258v-10.89h-3.384v-1.71h8.676v1.71h-3.384V258H218.6Z" fill="#302825"/><rect x="50" y="149" width="188" height="188" rx="94" stroke="#302825" stroke-width="2"/><path d="M346.471 422.216c-1.056 0-1.956-.27-2.7-.81-.732-.54-1.296-1.296-1.692-2.268-.384-.984-.576-2.124-.576-3.42 0-1.308.192-2.448.576-3.42.396-.984.966-1.746 1.71-2.286.744-.552 1.638-.828 2.682-.828 1.356 0 2.436.372 3.24 1.116.804.732 1.272 1.728 1.404 2.988h-2.106c-.108-.66-.378-1.206-.81-1.638-.42-.444-1.002-.666-1.746-.666-.948 0-1.686.42-2.214 1.26-.528.84-.792 1.998-.792 3.474 0 1.464.264 2.616.792 3.456.528.828 1.266 1.242 2.214 1.242.768 0 1.356-.198 1.764-.594.408-.408.672-.942.792-1.602h2.106c-.192 1.236-.678 2.214-1.458 2.934-.78.708-1.842 1.062-3.186 1.062ZM357.228 422.216c-1.02 0-1.902-.264-2.646-.792s-1.314-1.278-1.71-2.25c-.396-.972-.594-2.13-.594-3.474 0-1.344.198-2.502.594-3.474.396-.972.966-1.722 1.71-2.25s1.626-.792 2.646-.792c1.032 0 1.914.264 2.646.792.744.528 1.314 1.278 1.71 2.25.396.972.594 2.13.594 3.474 0 1.344-.198 2.502-.594 3.474-.396.972-.966 1.722-1.71 2.25-.732.528-1.614.792-2.646.792Zm0-1.8c.9 0 1.626-.402 2.178-1.206.552-.816.828-1.986.828-3.51 0-1.524-.276-2.688-.828-3.492-.552-.816-1.278-1.224-2.178-1.224-.912 0-1.644.408-2.196 1.224-.54.804-.81 1.968-.81 3.492s.27 2.694.81 3.51c.552.804 1.284 1.206 2.196 1.206ZM363.539 422v-12.6h1.872l5.274 9.234V409.4h1.818V422h-1.872l-5.274-9.234V422h-1.818ZM377.86 422v-10.89h-3.384v-1.71h8.676v1.71h-3.384V422h-1.908ZM385.917 422v-1.692h2.736v-9.216h-2.7V409.4h7.308v1.692h-2.7v9.216h2.736V422h-7.38ZM395.918 422v-12.6h1.872l5.274 9.234V409.4h1.818V422h-1.872l-5.274-9.234V422h-1.818ZM411.157 422.216c-.852 0-1.614-.174-2.286-.522-.66-.348-1.182-.876-1.566-1.584-.384-.72-.576-1.626-.576-2.718V409.4h1.908v8.1c0 .96.228 1.704.684 2.232.456.516 1.08.774 1.872.774s1.416-.258 1.872-.774c.456-.528.684-1.272.684-2.232v-8.1h1.908v7.992c0 1.092-.198 1.998-.594 2.718-.396.708-.936 1.236-1.62 1.584-.672.348-1.434.522-2.286.522ZM421.986 422.216c-1.02 0-1.902-.264-2.646-.792s-1.314-1.278-1.71-2.25c-.396-.972-.594-2.13-.594-3.474 0-1.344.198-2.502.594-3.474.396-.972.966-1.722 1.71-2.25s1.626-.792 2.646-.792c1.032 0 1.914.264 2.646.792.744.528 1.314 1.278 1.71 2.25.396.972.594 2.13.594 3.474 0 1.344-.198 2.502-.594 3.474-.396.972-.966 1.722-1.71 2.25-.732.528-1.614.792-2.646.792Zm0-1.8c.9 0 1.626-.402 2.178-1.206.552-.816.828-1.986.828-3.51 0-1.524-.276-2.688-.828-3.492-.552-.816-1.278-1.224-2.178-1.224-.912 0-1.644.408-2.196 1.224-.54.804-.81 1.968-.81 3.492s.27 2.694.81 3.51c.552.804 1.284 1.206 2.196 1.206ZM432.743 422.216c-.852 0-1.614-.174-2.286-.522-.66-.348-1.182-.876-1.566-1.584-.384-.72-.576-1.626-.576-2.718V409.4h1.908v8.1c0 .96.228 1.704.684 2.232.456.516 1.08.774 1.872.774s1.416-.258 1.872-.774c.456-.528.684-1.272.684-2.232v-8.1h1.908v7.992c0 1.092-.198 1.998-.594 2.718-.396.708-.936 1.236-1.62 1.584-.672.348-1.434.522-2.286.522ZM443.698 422.216c-.888 0-1.668-.162-2.34-.486a3.815 3.815 0 0 1-1.566-1.386c-.372-.6-.564-1.314-.576-2.142h2.016c.012.636.228 1.182.648 1.638.432.444 1.032.666 1.8.666.708 0 1.26-.162 1.656-.486.396-.336.594-.768.594-1.296 0-.444-.12-.81-.36-1.098-.228-.3-.588-.564-1.08-.792-.492-.24-1.128-.486-1.908-.738-1.044-.336-1.812-.798-2.304-1.386-.492-.6-.738-1.332-.738-2.196 0-.996.36-1.8 1.08-2.412.72-.612 1.71-.918 2.97-.918 1.224 0 2.208.318 2.952.954.744.624 1.128 1.494 1.152 2.61h-2.034c0-.3-.084-.588-.252-.864a1.928 1.928 0 0 0-.72-.702c-.312-.192-.696-.288-1.152-.288-.564-.012-1.038.126-1.422.414a1.322 1.322 0 0 0-.576 1.134c0 .588.234 1.05.702 1.386.468.324 1.23.66 2.286 1.008.66.216 1.242.48 1.746.792.516.3.918.69 1.206 1.17.3.468.45 1.068.45 1.8 0 .672-.168 1.284-.504 1.836-.336.54-.822.972-1.458 1.296-.624.324-1.38.486-2.268.486ZM361.67 441v-10.89h-3.384v-1.71h8.676v1.71h-3.384V441h-1.908ZM369.457 441v-12.6h8.046v1.71h-6.138v3.672h5.598v1.692h-5.598v3.816h6.138V441h-8.046ZM384.336 441.216c-.888 0-1.668-.162-2.34-.486a3.815 3.815 0 0 1-1.566-1.386c-.372-.6-.564-1.314-.576-2.142h2.016c.012.636.228 1.182.648 1.638.432.444 1.032.666 1.8.666.708 0 1.26-.162 1.656-.486.396-.336.594-.768.594-1.296 0-.444-.12-.81-.36-1.098-.228-.3-.588-.564-1.08-.792-.492-.24-1.128-.486-1.908-.738-1.044-.336-1.812-.798-2.304-1.386-.492-.6-.738-1.332-.738-2.196 0-.996.36-1.8 1.08-2.412.72-.612 1.71-.918 2.97-.918 1.224 0 2.208.318 2.952.954.744.624 1.128 1.494 1.152 2.61h-2.034c0-.3-.084-.588-.252-.864a1.928 1.928 0 0 0-.72-.702c-.312-.192-.696-.288-1.152-.288-.564-.012-1.038.126-1.422.414a1.322 1.322 0 0 0-.576 1.134c0 .588.234 1.05.702 1.386.468.324 1.23.66 2.286 1.008.66.216 1.242.48 1.746.792.516.3.918.69 1.206 1.17.3.468.45 1.068.45 1.8 0 .672-.168 1.284-.504 1.836-.336.54-.822.972-1.458 1.296-.624.324-1.38.486-2.268.486ZM394.049 441v-10.89h-3.384v-1.71h8.676v1.71h-3.384V441h-1.908ZM402.106 441v-1.692h2.736v-9.216h-2.7V428.4h7.308v1.692h-2.7v9.216h2.736V441h-7.38ZM412.107 441v-12.6h1.872l5.274 9.234V428.4h1.818V441h-1.872l-5.274-9.234V441h-1.818ZM427.22 441.216c-.936 0-1.758-.264-2.466-.792-.708-.54-1.26-1.296-1.656-2.268-.396-.972-.594-2.124-.594-3.456 0-1.308.198-2.448.594-3.42.396-.972.96-1.728 1.692-2.268.744-.552 1.632-.828 2.664-.828 1.248 0 2.25.342 3.006 1.026.768.684 1.236 1.65 1.404 2.898h-2.07c-.12-.648-.384-1.164-.792-1.548-.396-.384-.912-.576-1.548-.576-.972 0-1.716.42-2.232 1.26-.516.84-.774 1.992-.774 3.456 0 1.524.27 2.694.81 3.51.552.804 1.266 1.206 2.142 1.206.588 0 1.074-.174 1.458-.522.384-.348.678-.792.882-1.332.204-.552.33-1.134.378-1.746h-2.646v-1.584h4.572V441h-1.764l-.126-1.692h-.108a3.634 3.634 0 0 1-1.008 1.368c-.432.36-1.038.54-1.818.54Z" fill="#302825"/><rect x="301" y="331" width="188" height="188" rx="94" stroke="#302825" stroke-width="2"/><path d="M176.147 421.216c-.888 0-1.668-.162-2.34-.486a3.815 3.815 0 0 1-1.566-1.386c-.372-.6-.564-1.314-.576-2.142h2.016c.012.636.228 1.182.648 1.638.432.444 1.032.666 1.8.666.708 0 1.26-.162 1.656-.486.396-.336.594-.768.594-1.296 0-.444-.12-.81-.36-1.098-.228-.3-.588-.564-1.08-.792-.492-.24-1.128-.486-1.908-.738-1.044-.336-1.812-.798-2.304-1.386-.492-.6-.738-1.332-.738-2.196 0-.996.36-1.8 1.08-2.412.72-.612 1.71-.918 2.97-.918 1.224 0 2.208.318 2.952.954.744.624 1.128 1.494 1.152 2.61h-2.034c0-.3-.084-.588-.252-.864a1.928 1.928 0 0 0-.72-.702c-.312-.192-.696-.288-1.152-.288-.564-.012-1.038.126-1.422.414a1.322 1.322 0 0 0-.576 1.134c0 .588.234 1.05.702 1.386.468.324 1.23.66 2.286 1.008.66.216 1.242.48 1.746.792.516.3.918.69 1.206 1.17.3.468.45 1.068.45 1.8 0 .672-.168 1.284-.504 1.836-.336.54-.822.972-1.458 1.296-.624.324-1.38.486-2.268.486ZM186.814 421.216c-1.02 0-1.902-.264-2.646-.792s-1.314-1.278-1.71-2.25c-.396-.972-.594-2.13-.594-3.474 0-1.344.198-2.502.594-3.474.396-.972.966-1.722 1.71-2.25s1.626-.792 2.646-.792c1.032 0 1.914.264 2.646.792.744.528 1.314 1.278 1.71 2.25.396.972.594 2.13.594 3.474 0 1.344-.198 2.502-.594 3.474-.396.972-.966 1.722-1.71 2.25-.732.528-1.614.792-2.646.792Zm0-1.8c.9 0 1.626-.402 2.178-1.206.552-.816.828-1.986.828-3.51 0-1.524-.276-2.688-.828-3.492-.552-.816-1.278-1.224-2.178-1.224-.912 0-1.644.408-2.196 1.224-.54.804-.81 1.968-.81 3.492s.27 2.694.81 3.51c.552.804 1.284 1.206 2.196 1.206ZM197.571 421.216c-.852 0-1.614-.174-2.286-.522-.66-.348-1.182-.876-1.566-1.584-.384-.72-.576-1.626-.576-2.718V408.4h1.908v8.1c0 .96.228 1.704.684 2.232.456.516 1.08.774 1.872.774s1.416-.258 1.872-.774c.456-.528.684-1.272.684-2.232v-8.1h1.908v7.992c0 1.092-.198 1.998-.594 2.718-.396.708-.936 1.236-1.62 1.584-.672.348-1.434.522-2.286.522ZM204.35 421v-12.6h4.122c.984 0 1.794.168 2.43.504.648.336 1.128.792 1.44 1.368.324.564.486 1.206.486 1.926 0 .816-.21 1.542-.63 2.178-.408.624-1.038 1.08-1.89 1.368l2.646 5.256h-2.214l-2.412-4.986h-2.07V421h-1.908Zm1.908-6.714h2.106c.864 0 1.494-.192 1.89-.576.408-.384.612-.888.612-1.512 0-.636-.198-1.14-.594-1.512-.396-.384-1.038-.576-1.926-.576h-2.088v4.176ZM219.229 421.216c-1.056 0-1.956-.27-2.7-.81-.732-.54-1.296-1.296-1.692-2.268-.384-.984-.576-2.124-.576-3.42 0-1.308.192-2.448.576-3.42.396-.984.966-1.746 1.71-2.286.744-.552 1.638-.828 2.682-.828 1.356 0 2.436.372 3.24 1.116.804.732 1.272 1.728 1.404 2.988h-2.106c-.108-.66-.378-1.206-.81-1.638-.42-.444-1.002-.666-1.746-.666-.948 0-1.686.42-2.214 1.26-.528.84-.792 1.998-.792 3.474 0 1.464.264 2.616.792 3.456.528.828 1.266 1.242 2.214 1.242.768 0 1.356-.198 1.764-.594.408-.408.672-.942.792-1.602h2.106c-.192 1.236-.678 2.214-1.458 2.934-.78.708-1.842 1.062-3.186 1.062ZM226.026 421v-12.6h8.046v1.71h-6.138v3.672h5.598v1.692h-5.598v3.816h6.138V421h-8.046ZM123.402 440v-12.6h4.122c.984 0 1.794.168 2.43.504.648.336 1.128.792 1.44 1.368.324.564.486 1.206.486 1.926 0 .816-.21 1.542-.63 2.178-.408.624-1.038 1.08-1.89 1.368l2.646 5.256h-2.214l-2.412-4.986h-2.07V440h-1.908Zm1.908-6.714h2.106c.864 0 1.494-.192 1.89-.576.408-.384.612-.888.612-1.512 0-.636-.198-1.14-.594-1.512-.396-.384-1.038-.576-1.926-.576h-2.088v4.176ZM134.555 440v-1.692h2.736v-9.216h-2.7V427.4h7.308v1.692h-2.7v9.216h2.736V440h-7.38ZM149.164 440.216c-.888 0-1.668-.162-2.34-.486a3.815 3.815 0 0 1-1.566-1.386c-.372-.6-.564-1.314-.576-2.142h2.016c.012.636.228 1.182.648 1.638.432.444 1.032.666 1.8.666.708 0 1.26-.162 1.656-.486.396-.336.594-.768.594-1.296 0-.444-.12-.81-.36-1.098-.228-.3-.588-.564-1.08-.792-.492-.24-1.128-.486-1.908-.738-1.044-.336-1.812-.798-2.304-1.386-.492-.6-.738-1.332-.738-2.196 0-.996.36-1.8 1.08-2.412.72-.612 1.71-.918 2.97-.918 1.224 0 2.208.318 2.952.954.744.624 1.128 1.494 1.152 2.61h-2.034c0-.3-.084-.588-.252-.864a1.928 1.928 0 0 0-.72-.702c-.312-.192-.696-.288-1.152-.288-.564-.012-1.038.126-1.422.414a1.322 1.322 0 0 0-.576 1.134c0 .588.234 1.05.702 1.386.468.324 1.23.66 2.286 1.008.66.216 1.242.48 1.746.792.516.3.918.69 1.206 1.17.3.468.45 1.068.45 1.8 0 .672-.168 1.284-.504 1.836-.336.54-.822.972-1.458 1.296-.624.324-1.38.486-2.268.486ZM155.799 440v-12.6h1.908v5.76l4.464-5.76h2.358l-4.932 6.246v.108l5.04 6.246h-2.412l-4.518-5.652V440h-1.908ZM176.521 440l3.762-12.6h2.268l3.762 12.6h-2.07l-.846-3.024h-3.96l-.846 3.024h-2.07Zm4.842-9.9-1.494 5.346h3.096l-1.494-5.346h-.108ZM192.336 440.216c-.888 0-1.668-.162-2.34-.486a3.815 3.815 0 0 1-1.566-1.386c-.372-.6-.564-1.314-.576-2.142h2.016c.012.636.228 1.182.648 1.638.432.444 1.032.666 1.8.666.708 0 1.26-.162 1.656-.486.396-.336.594-.768.594-1.296 0-.444-.12-.81-.36-1.098-.228-.3-.588-.564-1.08-.792-.492-.24-1.128-.486-1.908-.738-1.044-.336-1.812-.798-2.304-1.386-.492-.6-.738-1.332-.738-2.196 0-.996.36-1.8 1.08-2.412.72-.612 1.71-.918 2.97-.918 1.224 0 2.208.318 2.952.954.744.624 1.128 1.494 1.152 2.61h-2.034c0-.3-.084-.588-.252-.864a1.928 1.928 0 0 0-.72-.702c-.312-.192-.696-.288-1.152-.288-.564-.012-1.038.126-1.422.414a1.322 1.322 0 0 0-.576 1.134c0 .588.234 1.05.702 1.386.468.324 1.23.66 2.286 1.008.66.216 1.242.48 1.746.792.516.3.918.69 1.206 1.17.3.468.45 1.068.45 1.8 0 .672-.168 1.284-.504 1.836-.336.54-.822.972-1.458 1.296-.624.324-1.38.486-2.268.486ZM203.129 440.216c-.888 0-1.668-.162-2.34-.486a3.815 3.815 0 0 1-1.566-1.386c-.372-.6-.564-1.314-.576-2.142h2.016c.012.636.228 1.182.648 1.638.432.444 1.032.666 1.8.666.708 0 1.26-.162 1.656-.486.396-.336.594-.768.594-1.296 0-.444-.12-.81-.36-1.098-.228-.3-.588-.564-1.08-.792-.492-.24-1.128-.486-1.908-.738-1.044-.336-1.812-.798-2.304-1.386-.492-.6-.738-1.332-.738-2.196 0-.996.36-1.8 1.08-2.412.72-.612 1.71-.918 2.97-.918 1.224 0 2.208.318 2.952.954.744.624 1.128 1.494 1.152 2.61h-2.034c0-.3-.084-.588-.252-.864a1.928 1.928 0 0 0-.72-.702c-.312-.192-.696-.288-1.152-.288-.564-.012-1.038.126-1.422.414a1.322 1.322 0 0 0-.576 1.134c0 .588.234 1.05.702 1.386.468.324 1.23.66 2.286 1.008.66.216 1.242.48 1.746.792.516.3.918.69 1.206 1.17.3.468.45 1.068.45 1.8 0 .672-.168 1.284-.504 1.836-.336.54-.822.972-1.458 1.296-.624.324-1.38.486-2.268.486ZM209.836 440v-12.6h8.046v1.71h-6.138v3.672h5.598v1.692h-5.598v3.816h6.138V440h-8.046ZM224.715 440.216c-.888 0-1.668-.162-2.34-.486a3.815 3.815 0 0 1-1.566-1.386c-.372-.6-.564-1.314-.576-2.142h2.016c.012.636.228 1.182.648 1.638.432.444 1.032.666 1.8.666.708 0 1.26-.162 1.656-.486.396-.336.594-.768.594-1.296 0-.444-.12-.81-.36-1.098-.228-.3-.588-.564-1.08-.792-.492-.24-1.128-.486-1.908-.738-1.044-.336-1.812-.798-2.304-1.386-.492-.6-.738-1.332-.738-2.196 0-.996.36-1.8 1.08-2.412.72-.612 1.71-.918 2.97-.918 1.224 0 2.208.318 2.952.954.744.624 1.128 1.494 1.152 2.61h-2.034c0-.3-.084-.588-.252-.864a1.928 1.928 0 0 0-.72-.702c-.312-.192-.696-.288-1.152-.288-.564-.012-1.038.126-1.422.414a1.322 1.322 0 0 0-.576 1.134c0 .588.234 1.05.702 1.386.468.324 1.23.66 2.286 1.008.66.216 1.242.48 1.746.792.516.3.918.69 1.206 1.17.3.468.45 1.068.45 1.8 0 .672-.168 1.284-.504 1.836-.336.54-.822.972-1.458 1.296-.624.324-1.38.486-2.268.486ZM235.508 440.216c-.888 0-1.668-.162-2.34-.486a3.815 3.815 0 0 1-1.566-1.386c-.372-.6-.564-1.314-.576-2.142h2.016c.012.636.228 1.182.648 1.638.432.444 1.032.666 1.8.666.708 0 1.26-.162 1.656-.486.396-.336.594-.768.594-1.296 0-.444-.12-.81-.36-1.098-.228-.3-.588-.564-1.08-.792-.492-.24-1.128-.486-1.908-.738-1.044-.336-1.812-.798-2.304-1.386-.492-.6-.738-1.332-.738-2.196 0-.996.36-1.8 1.08-2.412.72-.612 1.71-.918 2.97-.918 1.224 0 2.208.318 2.952.954.744.624 1.128 1.494 1.152 2.61h-2.034c0-.3-.084-.588-.252-.864a1.928 1.928 0 0 0-.72-.702c-.312-.192-.696-.288-1.152-.288-.564-.012-1.038.126-1.422.414a1.322 1.322 0 0 0-.576 1.134c0 .588.234 1.05.702 1.386.468.324 1.23.66 2.286 1.008.66.216 1.242.48 1.746.792.516.3.918.69 1.206 1.17.3.468.45 1.068.45 1.8 0 .672-.168 1.284-.504 1.836-.336.54-.822.972-1.458 1.296-.624.324-1.38.486-2.268.486ZM241.549 440v-12.6h2.016l2.61 5.688 2.61-5.688h2.016V440h-1.818v-8.964l-2.052 4.5h-1.512l-2.052-4.482V440h-1.818ZM253.008 440v-12.6h8.046v1.71h-6.138v3.672h5.598v1.692h-5.598v3.816h6.138V440h-8.046ZM263.279 440v-12.6h1.872l5.274 9.234V427.4h1.818V440h-1.872l-5.274-9.234V440h-1.818ZM277.6 440v-10.89h-3.384v-1.71h8.676v1.71h-3.384V440H277.6Z" fill="#302825"/><rect x="109" y="331" width="188" height="188" rx="94" stroke="#302825" stroke-width="2"/><path d="M254.208 278v-13.3h2.014v5.51h5.814v-5.51h2.014V278h-2.014v-5.947h-5.814V278h-2.014ZM270.522 278.228c-1.077 0-2.008-.279-2.793-.836-.785-.557-1.387-1.349-1.805-2.375-.418-1.026-.627-2.248-.627-3.667 0-1.419.209-2.641.627-3.667.418-1.026 1.02-1.818 1.805-2.375.785-.557 1.716-.836 2.793-.836 1.089 0 2.02.279 2.793.836.785.557 1.387 1.349 1.805 2.375.418 1.026.627 2.248.627 3.667 0 1.419-.209 2.641-.627 3.667-.418 1.026-1.02 1.818-1.805 2.375-.773.557-1.704.836-2.793.836Zm0-1.9c.95 0 1.716-.424 2.299-1.273.583-.861.874-2.096.874-3.705s-.291-2.837-.874-3.686c-.583-.861-1.349-1.292-2.299-1.292-.963 0-1.735.431-2.318 1.292-.57.849-.855 2.077-.855 3.686s.285 2.844.855 3.705c.583.849 1.355 1.273 2.318 1.273ZM277.753 278v-13.3h2.014v11.495h6.555V278h-8.569ZM289.412 278v-1.786h2.888v-9.728h-2.85V264.7h7.714v1.786h-2.85v9.728h2.888V278h-7.79ZM304.833 278.228c-.938 0-1.761-.171-2.47-.513a4.025 4.025 0 0 1-1.653-1.463c-.393-.633-.596-1.387-.608-2.261h2.128c.012.671.24 1.248.684 1.729.456.469 1.089.703 1.9.703.747 0 1.33-.171 1.748-.513.418-.355.627-.811.627-1.368 0-.469-.127-.855-.38-1.159-.241-.317-.621-.595-1.14-.836-.52-.253-1.191-.513-2.014-.779-1.102-.355-1.913-.842-2.432-1.463-.52-.633-.779-1.406-.779-2.318 0-1.051.38-1.9 1.14-2.546.76-.646 1.805-.969 3.135-.969 1.292 0 2.33.336 3.116 1.007.785.659 1.19 1.577 1.216 2.755h-2.147a1.73 1.73 0 0 0-.266-.912 2.042 2.042 0 0 0-.76-.741c-.33-.203-.735-.304-1.216-.304-.596-.013-1.096.133-1.501.437-.406.291-.608.69-.608 1.197 0 .621.247 1.108.741 1.463.494.342 1.298.697 2.413 1.064a8.563 8.563 0 0 1 1.843.836c.544.317.969.728 1.273 1.235.316.494.475 1.127.475 1.9 0 .709-.178 1.355-.532 1.938-.355.57-.868 1.026-1.539 1.368-.659.342-1.457.513-2.394.513ZM315.085 278v-11.495h-3.572V264.7h9.158v1.805h-3.572V278h-2.014ZM323.59 278v-1.786h2.888v-9.728h-2.85V264.7h7.714v1.786h-2.85v9.728h2.888V278h-7.79ZM338.915 278.228c-1.114 0-2.064-.285-2.85-.855-.772-.57-1.368-1.368-1.786-2.394-.405-1.039-.608-2.242-.608-3.61 0-1.381.203-2.584.608-3.61.418-1.039 1.02-1.843 1.805-2.413.786-.583 1.729-.874 2.831-.874 1.432 0 2.572.393 3.42 1.178.849.773 1.343 1.824 1.482 3.154h-2.223c-.114-.697-.399-1.273-.855-1.729-.443-.469-1.057-.703-1.843-.703-1 0-1.779.443-2.337 1.33-.557.887-.836 2.109-.836 3.667 0 1.545.279 2.761.836 3.648.558.874 1.337 1.311 2.337 1.311.811 0 1.432-.209 1.862-.627.431-.431.71-.994.836-1.691h2.223c-.202 1.305-.715 2.337-1.539 3.097-.823.747-1.944 1.121-3.363 1.121ZM259.262 299.228c-.937 0-1.76-.171-2.47-.513a4.037 4.037 0 0 1-1.653-1.463c-.392-.633-.595-1.387-.608-2.261h2.128c.013.671.241 1.248.684 1.729.456.469 1.09.703 1.9.703.748 0 1.33-.171 1.748-.513.418-.355.627-.811.627-1.368 0-.469-.126-.855-.38-1.159-.24-.317-.62-.595-1.14-.836-.519-.253-1.19-.513-2.014-.779-1.102-.355-1.912-.842-2.432-1.463-.519-.633-.779-1.406-.779-2.318 0-1.051.38-1.9 1.14-2.546.76-.646 1.805-.969 3.135-.969 1.292 0 2.331.336 3.116 1.007.786.659 1.191 1.577 1.216 2.755h-2.147c0-.317-.088-.621-.266-.912a2.028 2.028 0 0 0-.76-.741c-.329-.203-.734-.304-1.216-.304-.595-.013-1.095.133-1.501.437-.405.291-.608.69-.608 1.197 0 .621.247 1.108.741 1.463.494.342 1.299.697 2.413 1.064a8.541 8.541 0 0 1 1.843.836c.545.317.969.728 1.273 1.235.317.494.475 1.127.475 1.9 0 .709-.177 1.355-.532 1.938-.354.57-.867 1.026-1.539 1.368-.658.342-1.456.513-2.394.513ZM266.342 299v-13.3h8.493v1.805h-6.479v3.876h5.909v1.786h-5.909v4.028h6.479V299h-8.493ZM281.952 299.228c-1.114 0-2.064-.285-2.85-.855-.772-.57-1.368-1.368-1.786-2.394-.405-1.039-.608-2.242-.608-3.61 0-1.381.203-2.584.608-3.61.418-1.039 1.02-1.843 1.805-2.413.786-.583 1.729-.874 2.831-.874 1.432 0 2.572.393 3.42 1.178.849.773 1.343 1.824 1.482 3.154h-2.223c-.114-.697-.399-1.273-.855-1.729-.443-.469-1.057-.703-1.843-.703-1 0-1.779.443-2.337 1.33-.557.887-.836 2.109-.836 3.667 0 1.545.279 2.761.836 3.648.558.874 1.337 1.311 2.337 1.311.811 0 1.432-.209 1.862-.627.431-.431.71-.994.836-1.691h2.223c-.202 1.305-.715 2.337-1.539 3.097-.823.747-1.944 1.121-3.363 1.121ZM293.269 299.228c-.899 0-1.704-.184-2.413-.551-.697-.367-1.248-.925-1.653-1.672-.405-.76-.608-1.716-.608-2.869V285.7h2.014v8.55c0 1.013.241 1.799.722 2.356.481.545 1.14.817 1.976.817.836 0 1.495-.272 1.976-.817.481-.557.722-1.343.722-2.356v-8.55h2.014v8.436c0 1.153-.209 2.109-.627 2.869-.418.747-.988 1.305-1.71 1.672-.709.367-1.514.551-2.413.551ZM300.425 299v-13.3h4.351c1.038 0 1.893.177 2.565.532.684.355 1.19.836 1.52 1.444.342.595.513 1.273.513 2.033 0 .861-.222 1.628-.665 2.299-.431.659-1.096 1.14-1.995 1.444l2.793 5.548h-2.337l-2.546-5.263h-2.185V299h-2.014Zm2.014-7.087h2.223c.912 0 1.577-.203 1.995-.608.43-.405.646-.937.646-1.596 0-.671-.209-1.203-.627-1.596-.418-.405-1.096-.608-2.033-.608h-2.204v4.408ZM312.197 299v-1.786h2.888v-9.728h-2.85V285.7h7.714v1.786h-2.85v9.728h2.888V299h-7.79ZM326.478 299v-11.495h-3.572V285.7h9.158v1.805h-3.572V299h-2.014ZM337.87 299v-5.054l-4.389-8.246h2.299l3.097 6.118 3.097-6.118h2.299l-4.389 8.246V299h-2.014ZM249.082 320v-13.3h4.503c1.013 0 1.849.177 2.508.532.659.342 1.146.817 1.463 1.425.317.608.475 1.305.475 2.09 0 .785-.158 1.482-.475 2.09-.317.608-.804 1.089-1.463 1.444-.659.342-1.495.513-2.508.513h-2.489V320h-2.014Zm2.014-7.011h2.394c.861 0 1.488-.203 1.881-.608.405-.405.608-.95.608-1.634 0-.671-.203-1.21-.608-1.615-.393-.418-1.02-.627-1.881-.627h-2.394v4.484ZM260.551 320v-13.3h4.351c1.038 0 1.893.177 2.565.532.684.355 1.19.836 1.52 1.444.342.595.513 1.273.513 2.033 0 .861-.222 1.628-.665 2.299-.431.659-1.096 1.14-1.995 1.444l2.793 5.548h-2.337l-2.546-5.263h-2.185V320h-2.014Zm2.014-7.087h2.223c.912 0 1.577-.203 1.995-.608.43-.405.646-.937.646-1.596 0-.671-.209-1.203-.627-1.596-.418-.405-1.096-.608-2.033-.608h-2.204v4.408ZM271.05 320l3.971-13.3h2.394l3.971 13.3h-2.185l-.893-3.192h-4.18l-.893 3.192h-2.185Zm5.111-10.45-1.577 5.643h3.268l-1.577-5.643h-.114ZM287.649 320.228c-1.115 0-2.065-.285-2.85-.855-.773-.57-1.368-1.368-1.786-2.394-.406-1.039-.608-2.242-.608-3.61 0-1.381.202-2.584.608-3.61.418-1.039 1.019-1.843 1.805-2.413.785-.583 1.729-.874 2.831-.874 1.431 0 2.571.393 3.42 1.178.848.773 1.342 1.824 1.482 3.154h-2.223c-.114-.697-.399-1.273-.855-1.729-.444-.469-1.058-.703-1.843-.703-1.001 0-1.78.443-2.337 1.33-.558.887-.836 2.109-.836 3.667 0 1.545.278 2.761.836 3.648.557.874 1.336 1.311 2.337 1.311.81 0 1.431-.209 1.862-.627.43-.431.709-.994.836-1.691h2.223c-.203 1.305-.716 2.337-1.539 3.097-.824.747-1.945 1.121-3.363 1.121ZM297.996 320v-11.495h-3.572V306.7h9.158v1.805h-3.572V320h-2.014ZM306.501 320v-1.786h2.888v-9.728h-2.85V306.7h7.714v1.786h-2.85v9.728h2.888V320h-7.79ZM321.826 320.228c-1.114 0-2.064-.285-2.849-.855-.773-.57-1.369-1.368-1.787-2.394-.405-1.039-.607-2.242-.607-3.61 0-1.381.202-2.584.607-3.61.418-1.039 1.02-1.843 1.805-2.413.786-.583 1.729-.874 2.831-.874 1.432 0 2.572.393 3.42 1.178.849.773 1.343 1.824 1.483 3.154h-2.223c-.114-.697-.399-1.273-.855-1.729-.444-.469-1.058-.703-1.843-.703-1.001 0-1.78.443-2.337 1.33-.558.887-.837 2.109-.837 3.667 0 1.545.279 2.761.837 3.648.557.874 1.336 1.311 2.337 1.311.81 0 1.431-.209 1.862-.627.43-.431.709-.994.836-1.691h2.223c-.203 1.305-.716 2.337-1.54 3.097-.823.747-1.944 1.121-3.363 1.121ZM329.001 320v-13.3h8.493v1.805h-6.479v3.876h5.909v1.786h-5.909v4.028h6.479V320h-8.493ZM344.707 320.228c-.938 0-1.761-.171-2.47-.513a4.025 4.025 0 0 1-1.653-1.463c-.393-.633-.596-1.387-.608-2.261h2.128c.012.671.24 1.248.684 1.729.456.469 1.089.703 1.9.703.747 0 1.33-.171 1.748-.513.418-.355.627-.811.627-1.368 0-.469-.127-.855-.38-1.159-.241-.317-.621-.595-1.14-.836-.52-.253-1.191-.513-2.014-.779-1.102-.355-1.913-.842-2.432-1.463-.52-.633-.779-1.406-.779-2.318 0-1.051.38-1.9 1.14-2.546.76-.646 1.805-.969 3.135-.969 1.292 0 2.33.336 3.116 1.007.785.659 1.19 1.577 1.216 2.755h-2.147a1.73 1.73 0 0 0-.266-.912 2.042 2.042 0 0 0-.76-.741c-.33-.203-.735-.304-1.216-.304-.596-.013-1.096.133-1.501.437-.406.291-.608.69-.608 1.197 0 .621.247 1.108.741 1.463.494.342 1.298.697 2.413 1.064a8.563 8.563 0 0 1 1.843.836c.544.317.969.728 1.273 1.235.316.494.475 1.127.475 1.9 0 .709-.178 1.355-.532 1.938-.355.57-.868 1.026-1.539 1.368-.659.342-1.457.513-2.394.513Z" fill="#FF4D00"/></svg>