<svg width="680" height="204" fill="none" xmlns="http://www.w3.org/2000/svg"><path d="M14.416 28.292c-.939 0-1.739-.24-2.4-.72-.65-.48-1.152-1.152-1.504-2.016-.341-.875-.512-1.888-.512-3.04 0-1.163.17-2.176.512-3.04.352-.875.859-1.552 1.52-2.032.661-.49 1.456-.736 2.384-.736 1.205 0 2.165.33 2.88.992.715.65 1.13 1.536 1.248 2.656h-1.872c-.096-.587-.336-1.072-.72-1.456-.373-.395-.89-.592-1.552-.592-.843 0-1.499.373-1.968 1.12-.47.747-.704 1.776-.704 3.088 0 1.301.235 2.325.704 3.072.47.736 1.125 1.104 1.968 1.104.683 0 1.205-.176 1.568-.528.363-.363.597-.837.704-1.424h1.872c-.17 1.099-.603 1.968-1.296 2.608-.693.63-1.637.944-2.832.944ZM20.378 28.1V16.9h3.664c.874 0 1.594.15 2.16.448.576.299 1.002.704 1.28 1.216.288.501.432 1.072.432 1.712 0 .725-.187 1.37-.56 1.936-.363.555-.923.96-1.68 1.216l2.352 4.672h-1.968l-2.144-4.432h-1.84V28.1h-1.696Zm1.696-5.968h1.872c.768 0 1.328-.17 1.68-.512.362-.341.544-.79.544-1.344 0-.565-.176-1.013-.528-1.344-.352-.341-.923-.512-1.712-.512h-1.856v3.712ZM30.291 28.1v-1.504h2.433v-8.192h-2.4V16.9h6.495v1.504h-2.4v8.192h2.433V28.1h-6.56ZM42.317 28.1v-9.68H39.31V16.9h7.712v1.52h-3.008v9.68h-1.696ZM49.479 28.1v-1.504h2.432v-8.192h-2.4V16.9h6.496v1.504h-2.4v8.192h2.432V28.1h-6.56ZM62.385 28.292c-.939 0-1.739-.24-2.4-.72-.65-.48-1.152-1.152-1.504-2.016-.342-.875-.512-1.888-.512-3.04 0-1.163.17-2.176.512-3.04.352-.875.858-1.552 1.52-2.032.661-.49 1.456-.736 2.384-.736 1.205 0 2.165.33 2.88.992.714.65 1.13 1.536 1.248 2.656H64.64c-.096-.587-.336-1.072-.72-1.456-.374-.395-.89-.592-1.552-.592-.843 0-1.499.373-1.968 1.12-.47.747-.704 1.776-.704 3.088 0 1.301.234 2.325.704 3.072.47.736 1.125 1.104 1.968 1.104.682 0 1.205-.176 1.568-.528.362-.363.597-.837.704-1.424h1.872c-.17 1.099-.603 1.968-1.296 2.608-.694.63-1.638.944-2.832.944ZM67.594 28.1l3.345-11.2h2.016l3.344 11.2h-1.84l-.752-2.688h-3.52l-.752 2.688h-1.84Zm4.305-8.8-1.329 4.752h2.753L71.995 19.3h-.097ZM78.036 28.1V16.9h1.696v9.68h5.52v1.52h-7.216ZM97.128 28.1V16.9h3.664c.874 0 1.594.15 2.16.448.576.299 1.002.704 1.28 1.216.288.501.432 1.072.432 1.712 0 .725-.187 1.37-.56 1.936-.363.555-.923.96-1.68 1.216l2.352 4.672h-1.968l-2.144-4.432h-1.84V28.1h-1.696Zm1.696-5.968h1.872c.768 0 1.328-.17 1.68-.512.362-.341.544-.79.544-1.344 0-.565-.176-1.013-.528-1.344-.352-.341-.923-.512-1.712-.512h-1.856v3.712ZM107.041 28.1v-1.504h2.433v-8.192h-2.4V16.9h6.496v1.504h-2.4v8.192h2.432V28.1h-6.561ZM120.027 28.292c-.789 0-1.482-.144-2.08-.432a3.4 3.4 0 0 1-1.392-1.232c-.33-.533-.501-1.168-.512-1.904h1.792a2.14 2.14 0 0 0 .576 1.456c.384.395.918.592 1.6.592.63 0 1.12-.144 1.472-.432.352-.299.528-.683.528-1.152 0-.395-.106-.72-.32-.976-.202-.267-.522-.501-.96-.704a13.204 13.204 0 0 0-1.696-.656c-.928-.299-1.61-.71-2.048-1.232-.437-.533-.656-1.184-.656-1.952 0-.885.32-1.6.96-2.144.64-.544 1.52-.816 2.64-.816 1.088 0 1.963.283 2.624.848.662.555 1.003 1.328 1.024 2.32h-1.808a1.45 1.45 0 0 0-.224-.768 1.706 1.706 0 0 0-.64-.624c-.277-.17-.618-.256-1.024-.256-.501-.01-.922.112-1.264.368a1.176 1.176 0 0 0-.512 1.008c0 .523.208.933.624 1.232.416.288 1.094.587 2.032.896a7.18 7.18 0 0 1 1.552.704 2.95 2.95 0 0 1 1.072 1.04c.267.416.4.95.4 1.6 0 .597-.149 1.141-.448 1.632-.298.48-.73.864-1.296 1.152-.554.288-1.226.432-2.016.432ZM125.925 28.1V16.9h1.696v5.12l3.968-5.12h2.096l-4.384 5.552v.096l4.48 5.552h-2.144l-4.016-5.024V28.1h-1.696ZM543.968 29.5v-1.9h3.46V18l-3.3.6v-1.72l4.12-1.38h1.3v12.1h3.72v1.9h-9.3ZM560.64 29.74c-1.08 0-2.027-.293-2.84-.88-.8-.587-1.42-1.42-1.86-2.5-.44-1.093-.66-2.38-.66-3.86 0-1.493.22-2.78.66-3.86.44-1.08 1.06-1.913 1.86-2.5.813-.587 1.76-.88 2.84-.88 1.093 0 2.04.293 2.84.88.8.587 1.42 1.42 1.86 2.5.44 1.08.66 2.367.66 3.86 0 1.48-.22 2.767-.66 3.86-.44 1.08-1.06 1.913-1.86 2.5s-1.747.88-2.84.88Zm-3.2-7.24c0 .747.067 1.427.2 2.04s.32 1.147.56 1.6l3.5-8.66a2.419 2.419 0 0 0-1.06-.24c-.933 0-1.7.473-2.3 1.42-.6.933-.9 2.213-.9 3.84Zm3.2 5.28c.627 0 1.18-.213 1.66-.64.48-.427.853-1.033 1.12-1.82.28-.8.42-1.74.42-2.82 0-.747-.067-1.427-.2-2.04s-.32-1.14-.56-1.58l-3.5 8.66c.333.16.687.24 1.06.24Z" fill="#FF4D00"/><rect x="1" y="1" width="578" height="43" rx="7" stroke="#FF4D00" stroke-width="2"/><path d="M10 81.1V69.9h1.696v4.64h4.896V69.9h1.696v11.2h-1.696v-5.008h-4.896V81.1H10ZM20.458 81.1v-1.504h2.432v-8.192h-2.4V69.9h6.496v1.504h-2.4v8.192h2.432V81.1h-6.56ZM33.188 81.292c-.833 0-1.563-.235-2.193-.704-.629-.48-1.12-1.152-1.472-2.016-.351-.864-.527-1.888-.527-3.072 0-1.163.176-2.176.527-3.04.352-.864.854-1.536 1.505-2.016.66-.49 1.45-.736 2.367-.736 1.11 0 2 .304 2.672.912.683.608 1.1 1.467 1.248 2.576h-1.84c-.106-.576-.34-1.035-.703-1.376-.352-.341-.811-.512-1.377-.512-.864 0-1.525.373-1.984 1.12-.458.747-.688 1.77-.688 3.072 0 1.355.24 2.395.72 3.12.491.715 1.126 1.072 1.904 1.072.523 0 .955-.155 1.297-.464.34-.31.602-.704.784-1.184.18-.49.293-1.008.336-1.552H33.41v-1.408h4.064V81.1h-1.568l-.111-1.504H35.7a3.23 3.23 0 0 1-.897 1.216c-.383.32-.922.48-1.615.48ZM38.781 81.1V69.9h1.696v4.64h4.896V69.9h1.696v11.2h-1.696v-5.008h-4.896V81.1h-1.696ZM58.513 81.1V69.9h3.664c.874 0 1.594.15 2.16.448.576.299 1.002.704 1.28 1.216.288.501.432 1.072.432 1.712 0 .725-.187 1.37-.56 1.936-.363.555-.923.96-1.68 1.216L66.16 81.1h-1.968l-2.144-4.432h-1.84V81.1h-1.696Zm1.696-5.968h1.872c.768 0 1.328-.17 1.68-.512.362-.341.544-.79.544-1.344 0-.565-.176-1.013-.528-1.344-.352-.341-.923-.512-1.712-.512h-1.856v3.712ZM68.427 81.1v-1.504h2.431v-8.192h-2.4V69.9h6.496v1.504h-2.4v8.192h2.433V81.1h-6.56ZM81.412 81.292c-.79 0-1.482-.144-2.08-.432a3.39 3.39 0 0 1-1.392-1.232c-.33-.533-.501-1.168-.512-1.904h1.792c.01.565.203 1.05.576 1.456.384.395.918.592 1.6.592.63 0 1.12-.144 1.472-.432.352-.299.528-.683.528-1.152 0-.395-.106-.72-.32-.976-.202-.267-.522-.501-.96-.704a13.257 13.257 0 0 0-1.696-.656c-.928-.299-1.61-.71-2.048-1.232-.437-.533-.656-1.184-.656-1.952 0-.885.32-1.6.96-2.144.64-.544 1.52-.816 2.64-.816 1.088 0 1.963.283 2.624.848.662.555 1.003 1.328 1.024 2.32h-1.808c0-.267-.074-.523-.224-.768a1.714 1.714 0 0 0-.64-.624c-.277-.17-.618-.256-1.024-.256-.501-.01-.922.112-1.264.368a1.175 1.175 0 0 0-.512 1.008c0 .523.208.933.624 1.232.416.288 1.094.587 2.032.896a7.188 7.188 0 0 1 1.552.704c.459.267.816.613 1.072 1.04.267.416.4.95.4 1.6 0 .597-.15 1.141-.448 1.632-.298.48-.73.864-1.296 1.152-.554.288-1.226.432-2.016.432ZM87.31 81.1V69.9h1.696v5.12l3.968-5.12h2.096l-4.384 5.552v.096l4.48 5.552h-2.144l-4.016-5.024V81.1H87.31ZM434.255 82.38l5.3-12.08h-7.32v-1.92h9.5v1.64l-5.26 12.36h-2.22ZM449.048 82.5c-.494 0-.914-.16-1.26-.48a1.604 1.604 0 0 1-.52-1.2c0-.467.173-.86.52-1.18.346-.32.766-.48 1.26-.48.506 0 .926.16 1.26.48.346.32.52.713.52 1.18 0 .467-.174.867-.52 1.2-.334.32-.754.48-1.26.48ZM461.02 82.62c-.974 0-1.82-.18-2.54-.54-.72-.36-1.287-.853-1.7-1.48a4.59 4.59 0 0 1-.7-2.12h2.16c.133.653.44 1.18.92 1.58.493.4 1.12.6 1.88.6.893 0 1.6-.28 2.12-.84.52-.573.78-1.307.78-2.2 0-.947-.267-1.68-.8-2.2-.534-.52-1.214-.78-2.04-.78-.667 0-1.234.153-1.7.46a3.376 3.376 0 0 0-1.1 1.16h-2.04l1.2-7.88h7.62v1.96h-5.98l-.68 3.58h.14c.28-.32.653-.587 1.12-.8.48-.213 1.046-.32 1.7-.32.96 0 1.78.207 2.46.62a4.158 4.158 0 0 1 1.6 1.72c.373.72.56 1.54.56 2.46 0 .933-.207 1.78-.62 2.54a4.61 4.61 0 0 1-1.72 1.82c-.747.44-1.627.66-2.64.66Z" fill="#D65D29"/><rect x="1" y="54" width="478" height="43" rx="7" stroke="#D65D29" stroke-width="2"/><path d="M10 134.1v-11.2h1.792l2.32 5.056 2.32-5.056h1.792v11.2h-1.616v-7.968l-1.824 4H13.44l-1.824-3.984v7.952H10ZM20.186 134.1v-11.2h7.152v1.52h-5.456v3.264h4.976v1.504h-4.976v3.392h5.456v1.52h-7.152ZM29.412 134.1v-11.2H32.1c1.802 0 3.14.501 4.015 1.504.875.992 1.313 2.357 1.313 4.096 0 1.739-.438 3.109-1.313 4.112-.874.992-2.213 1.488-4.016 1.488h-2.687Zm1.696-1.568h.927c1.302 0 2.24-.363 2.817-1.088.576-.736.864-1.717.864-2.944 0-1.227-.288-2.203-.864-2.928-.576-.736-1.515-1.104-2.816-1.104h-.928v8.064ZM39.613 134.1v-1.504h2.432v-8.192h-2.4V122.9h6.496v1.504h-2.4v8.192h2.432v1.504h-6.56ZM52.455 134.292c-.757 0-1.435-.155-2.032-.464-.587-.309-1.05-.779-1.392-1.408-.341-.64-.512-1.445-.512-2.416V122.9h1.696v7.2c0 .853.203 1.515.608 1.984.405.459.96.688 1.664.688s1.259-.229 1.664-.688c.405-.469.608-1.131.608-1.984v-7.2h1.696v7.104c0 .971-.176 1.776-.528 2.416a3.391 3.391 0 0 1-1.44 1.408c-.597.309-1.275.464-2.032.464ZM57.969 134.1v-11.2h1.792l2.32 5.056 2.32-5.056h1.792v11.2h-1.616v-7.968l-1.824 4h-1.344l-1.824-3.984v7.952h-1.616ZM77.668 134.1v-11.2h3.664c.875 0 1.595.149 2.16.448.576.299 1.003.704 1.28 1.216.288.501.432 1.072.432 1.712 0 .725-.186 1.371-.56 1.936-.362.555-.922.96-1.68 1.216l2.352 4.672h-1.968l-2.144-4.432h-1.84v4.432h-1.696Zm1.696-5.968h1.872c.768 0 1.328-.171 1.68-.512.363-.341.544-.789.544-1.344 0-.565-.176-1.013-.528-1.344-.352-.341-.922-.512-1.712-.512h-1.856v3.712ZM87.582 134.1v-1.504h2.432v-8.192h-2.4V122.9h6.496v1.504h-2.4v8.192h2.432v1.504h-6.56ZM100.568 134.292c-.79 0-1.483-.144-2.08-.432a3.394 3.394 0 0 1-1.392-1.232c-.33-.533-.502-1.168-.512-1.904h1.792c.01.565.202 1.051.576 1.456.384.395.917.592 1.6.592.629 0 1.12-.144 1.472-.432.352-.299.528-.683.528-1.152 0-.395-.107-.72-.32-.976-.203-.267-.523-.501-.96-.704a13.356 13.356 0 0 0-1.696-.656c-.928-.299-1.61-.709-2.048-1.232-.438-.533-.656-1.184-.656-1.952 0-.885.32-1.6.96-2.144.64-.544 1.52-.816 2.64-.816 1.088 0 1.962.283 2.624.848.661.555 1.002 1.328 1.024 2.32h-1.808c0-.267-.075-.523-.224-.768a1.72 1.72 0 0 0-.64-.624c-.278-.171-.619-.256-1.024-.256-.502-.011-.923.112-1.264.368a1.174 1.174 0 0 0-.512 1.008c0 .523.208.933.624 1.232.416.288 1.093.587 2.032.896a7.216 7.216 0 0 1 1.552.704c.458.267.816.613 1.072 1.04.266.416.4.949.4 1.6 0 .597-.15 1.141-.448 1.632-.299.48-.731.864-1.296 1.152-.555.288-1.227.432-2.016.432ZM106.465 134.1v-11.2h1.696v5.12l3.968-5.12h2.096l-4.384 5.552v.096l4.48 5.552h-2.144l-4.016-5.024v5.024h-1.696ZM361.02 135.62c-.973 0-1.82-.18-2.54-.54-.72-.36-1.287-.853-1.7-1.48a4.602 4.602 0 0 1-.7-2.12h2.16c.133.653.44 1.18.92 1.58.493.4 1.12.6 1.88.6.893 0 1.6-.28 2.12-.84.52-.573.78-1.307.78-2.2 0-.947-.267-1.68-.8-2.2-.533-.52-1.213-.78-2.04-.78-.667 0-1.233.153-1.7.46a3.385 3.385 0 0 0-1.1 1.16h-2.04l1.2-7.88h7.62v1.96h-5.98l-.68 3.58h.14c.28-.32.653-.587 1.12-.8.48-.213 1.047-.32 1.7-.32.96 0 1.78.207 2.46.62a4.152 4.152 0 0 1 1.6 1.72c.373.72.56 1.54.56 2.46 0 .933-.207 1.78-.62 2.54a4.6 4.6 0 0 1-1.72 1.82c-.747.44-1.627.66-2.64.66Z" fill="#AA6F55"/><rect x="1" y="107" width="378" height="43" rx="7" stroke="#AA6F55" stroke-width="2"/><path d="M10 187.1v-11.2h1.696v9.68h5.52v1.52H10ZM23.098 187.292c-.907 0-1.69-.235-2.352-.704-.662-.469-1.168-1.136-1.52-2-.352-.864-.528-1.893-.528-3.088s.176-2.224.528-3.088c.352-.864.858-1.531 1.52-2 .661-.469 1.445-.704 2.352-.704.917 0 1.701.235 2.352.704.661.469 1.168 1.136 1.52 2 .352.864.528 1.893.528 3.088s-.176 2.224-.528 3.088c-.352.864-.859 1.531-1.52 2-.65.469-1.435.704-2.352.704Zm0-1.6c.8 0 1.445-.357 1.936-1.072.49-.725.736-1.765.736-3.12 0-1.355-.246-2.389-.736-3.104-.49-.725-1.136-1.088-1.936-1.088-.81 0-1.462.363-1.952 1.088-.48.715-.72 1.749-.72 3.104s.24 2.395.72 3.12c.49.715 1.141 1.072 1.952 1.072ZM29.444 187.1l-1.537-11.2h1.648l.928 8.144 1.377-8.144h1.663l1.377 8.144.928-8.144h1.647l-1.535 11.2h-1.968l-1.28-7.92-1.28 7.92h-1.968ZM48.279 187.1v-11.2h3.664c.875 0 1.595.149 2.16.448.576.299 1.003.704 1.28 1.216.288.501.432 1.072.432 1.712 0 .725-.187 1.371-.56 1.936-.363.555-.923.96-1.68 1.216l2.352 4.672h-1.968l-2.144-4.432h-1.84v4.432h-1.696Zm1.696-5.968h1.872c.768 0 1.328-.171 1.68-.512.363-.341.544-.789.544-1.344 0-.565-.176-1.013-.528-1.344-.352-.341-.923-.512-1.712-.512h-1.856v3.712ZM58.193 187.1v-1.504h2.432v-8.192h-2.4V175.9h6.496v1.504h-2.4v8.192h2.432v1.504h-6.56ZM71.178 187.292c-.789 0-1.482-.144-2.08-.432a3.393 3.393 0 0 1-1.391-1.232c-.331-.533-.502-1.168-.512-1.904h1.792c.01.565.202 1.051.576 1.456.383.395.917.592 1.6.592.629 0 1.12-.144 1.472-.432.352-.299.527-.683.527-1.152 0-.395-.106-.72-.32-.976-.202-.267-.522-.501-.96-.704a13.308 13.308 0 0 0-1.696-.656c-.928-.299-1.61-.709-2.048-1.232-.437-.533-.656-1.184-.656-1.952 0-.885.32-1.6.96-2.144.64-.544 1.52-.816 2.64-.816 1.089 0 1.963.283 2.625.848.66.555 1.002 1.328 1.024 2.32h-1.808c0-.267-.075-.523-.225-.768a1.714 1.714 0 0 0-.64-.624c-.277-.171-.618-.256-1.024-.256-.5-.011-.922.112-1.264.368a1.174 1.174 0 0 0-.511 1.008c0 .523.207.933.623 1.232.416.288 1.094.587 2.032.896a7.2 7.2 0 0 1 1.552.704c.46.267.817.613 1.073 1.04.266.416.4.949.4 1.6a3.08 3.08 0 0 1-.448 1.632c-.3.48-.731.864-1.296 1.152-.555.288-1.227.432-2.016.432ZM77.076 187.1v-11.2h1.696v5.12l3.968-5.12h2.096l-4.384 5.552v.096l4.48 5.552h-2.144l-4.016-5.024v5.024h-1.696ZM232.456 188.5v-1.68a81.653 81.653 0 0 0 3.6-3.02c1.04-.92 1.853-1.807 2.44-2.66.587-.853.88-1.72.88-2.6 0-.733-.207-1.307-.62-1.72-.413-.427-.973-.64-1.68-.64-.813 0-1.44.26-1.88.78-.44.507-.66 1.113-.66 1.82h-2.06c.013-.987.22-1.813.62-2.48a3.95 3.95 0 0 1 1.62-1.52c.693-.347 1.48-.52 2.36-.52 1.427 0 2.527.387 3.3 1.16.773.76 1.16 1.78 1.16 3.06 0 .813-.18 1.6-.54 2.36a9.592 9.592 0 0 1-1.38 2.14 17.466 17.466 0 0 1-1.92 1.94c-.693.613-1.393 1.2-2.1 1.76h6.32v1.82h-9.46ZM249.048 188.62c-.493 0-.913-.16-1.26-.48a1.607 1.607 0 0 1-.52-1.2c0-.467.174-.86.52-1.18.347-.32.767-.48 1.26-.48.507 0 .927.16 1.26.48.347.32.52.713.52 1.18 0 .467-.173.867-.52 1.2-.333.32-.753.48-1.26.48ZM261.02 188.74c-.973 0-1.82-.18-2.54-.54-.72-.36-1.286-.853-1.7-1.48a4.602 4.602 0 0 1-.7-2.12h2.16c.134.653.44 1.18.92 1.58.494.4 1.12.6 1.88.6.894 0 1.6-.28 2.12-.84.52-.573.78-1.307.78-2.2 0-.947-.266-1.68-.8-2.2-.533-.52-1.213-.78-2.04-.78-.666 0-1.233.153-1.7.46a3.395 3.395 0 0 0-1.1 1.16h-2.04l1.2-7.88h7.62v1.96h-5.98l-.68 3.58h.14c.28-.32.654-.587 1.12-.8.48-.213 1.047-.32 1.7-.32.96 0 1.78.207 2.46.62a4.146 4.146 0 0 1 1.6 1.72c.374.72.56 1.54.56 2.46 0 .933-.206 1.78-.62 2.54a4.6 4.6 0 0 1-1.72 1.82c-.746.44-1.626.66-2.64.66Z" fill="#8C7A73"/><rect x="1" y="160" width="278" height="43" rx="7" stroke="#8C7A73" stroke-width="2"/></svg>