<svg width="60" height="60" fill="none" xmlns="http://www.w3.org/2000/svg"><path stroke="#302825" stroke-width="2" stroke-linejoin="round" d="M10 19h4v4h-4zM31 19h4v4h-4zM19 19h7v4h-7zM40 19h10v4H40z"/><path fill="#FF4D00" stroke="#FF4D00" stroke-width="2" stroke-linejoin="round" d="M22 28h4v4h-4zM46 28h4v4h-4zM10 28h7v4h-7zM31 28h10v4H31z"/><path stroke="#302825" stroke-width="2" stroke-linejoin="round" d="M37 37h4v4h-4zM46 37h4v4h-4zM25 37h7v4h-7zM10 37h10v4H10zM23 14h-4v-4h4zM14 14h-4v-4h4zM50 14h-7v-4h7zM38 14H28v-4h10zM10 46h10v4H10zM25 46h4v4h-4zM34 46h7v4h-7zM46 46h4v4h-4z"/><path d="M15 1H3a2 2 0 0 0-2 2v27M45 59h12a2 2 0 0 0 2-2V30" stroke="#302825" stroke-width="2"/></svg>